<?xml version="1.0" encoding="UTF-8"?>
<svg xmlns="http://www.w3.org/2000/svg" width="400" height="400" viewBox="0 0 400 400" fill="none">
  <path d="M375.93,160.49l-55.78-52.07c-8.84-8.25-20.36-12.79-32.45-12.79H111.82c-12.15,0-23.72,4.59-32.58,12.91l-55.3,52.01c-9.52,8.95-14.97,21.57-14.97,34.64v79.49c0,16.37,13.58,29.69,30.27,29.69h321.52c16.69,0,30.27-13.32,30.27-29.69v-79.43c0-13.13-5.5-25.8-15.1-34.76Z" fill="#000" stroke-width="0"></path>
  <g>
    <path d="M135.29,137.98h2.96c1.03,0,1.95-.19,2.73-.57.79-.38,1.4-.93,1.84-1.64.44-.71.65-1.54.65-2.47s-.22-1.73-.66-2.43c-.44-.7-1.07-1.24-1.88-1.63-.81-.39-1.74-.58-2.78-.58h-6.26v14.24h3.41v-4.92ZM135.29,131.18h2.35c.73,0,1.32.2,1.75.59s.65.9.65,1.53c0,.43-.11.8-.32,1.13-.21.33-.5.58-.86.75-.36.17-.78.26-1.25.26h-2.33v-4.26Z" fill="#508eee" stroke-width="0"></path>
    <path d="M148.43,137.46h1.73c.31,0,.61.12.9.36.29.24.49.56.61.96l.63,2.36c.11.43.29.8.53,1.12.25.32.55.57.91.74.36.17.78.26,1.25.26.53,0,1.05-.11,1.56-.32s.94-.51,1.3-.88l-.8-1.62c-.16.19-.32.33-.47.43-.15.1-.3.15-.45.15-.16,0-.3-.06-.42-.19-.12-.13-.21-.3-.28-.53l-.49-1.78c-.08-.43-.22-.77-.43-1.03-.2-.26-.48-.47-.84-.63v-.02c.64-.15,1.2-.4,1.67-.77.48-.37.84-.81,1.09-1.32.25-.51.38-1.07.38-1.67,0-.89-.22-1.67-.66-2.33-.44-.66-1.07-1.17-1.9-1.54-.82-.37-1.79-.55-2.89-.55h-6.38v14.24h3.43v-5.44ZM148.43,131.18h2.65c.48,0,.89.09,1.23.26.35.17.62.4.82.69.2.29.3.62.3,1.01s-.1.73-.3,1.02c-.2.29-.47.52-.83.69-.35.17-.76.25-1.22.25h-2.65v-3.92Z" fill="#508eee" stroke-width="0"></path>
    <path d="M162.04,142.41c1.12.63,2.42.95,3.89.95s2.84-.32,3.95-.95c1.11-.63,1.97-1.52,2.6-2.66.62-1.14.94-2.46.94-3.97s-.31-2.85-.93-3.99c-.62-1.14-1.49-2.02-2.6-2.65s-2.43-.94-3.96-.94-2.77.31-3.9.94-2,1.51-2.62,2.66c-.62,1.15-.93,2.47-.93,3.98s.31,2.85.94,3.98c.62,1.13,1.5,2.02,2.62,2.65ZM162.42,133.3c.34-.71.81-1.25,1.42-1.64.61-.39,1.3-.58,2.09-.58.83,0,1.55.19,2.16.58.61.39,1.08.93,1.41,1.64.33.71.49,1.53.49,2.48s-.16,1.76-.49,2.47c-.33.71-.8,1.26-1.41,1.65-.61.39-1.33.58-2.16.58s-1.49-.19-2.09-.58c-.6-.39-1.08-.94-1.42-1.65-.34-.71-.51-1.54-.51-2.47s.17-1.77.51-2.48Z" fill="#508eee" stroke-width="0"></path>
    <path d="M178.09,142.39c1.01.62,2.18.93,3.53.93.72,0,1.41-.11,2.06-.34.65-.23,1.23-.55,1.74-.96.51-.41.93-.91,1.27-1.48h.02l.27,2.36h2.55v-8.08h-8.73v2.18h5.41c-.03.71-.2,1.32-.53,1.84-.33.52-.77.93-1.33,1.22s-1.19.44-1.9.44c-.83,0-1.55-.2-2.17-.59-.62-.39-1.1-.95-1.45-1.67s-.52-1.56-.52-2.52.15-1.73.46-2.43c.31-.7.74-1.24,1.31-1.63s1.21-.58,1.95-.58c.45,0,.87.1,1.25.29.39.19.73.46,1.03.8.3.34.54.74.71,1.21l3.16-.7c-.25-.89-.67-1.68-1.26-2.35-.6-.67-1.32-1.2-2.15-1.57-.84-.37-1.74-.56-2.7-.56-1.43,0-2.69.32-3.77.95-1.09.63-1.93,1.52-2.52,2.66-.59,1.14-.89,2.46-.89,3.97s.28,2.83.85,3.97c.56,1.14,1.35,2.02,2.36,2.64Z" fill="#508eee" stroke-width="0"></path>
    <path d="M195.32,137.46h1.73c.31,0,.61.12.9.36s.49.56.61.96l.63,2.36c.11.43.29.8.53,1.12.25.32.55.57.91.74.36.17.78.26,1.25.26.53,0,1.05-.11,1.56-.32.51-.21.94-.51,1.29-.88l-.8-1.62c-.16.19-.32.33-.47.43-.15.1-.3.15-.45.15-.16,0-.3-.06-.42-.19-.12-.13-.21-.3-.28-.53l-.49-1.78c-.08-.43-.22-.77-.43-1.03-.2-.26-.48-.47-.84-.63v-.02c.64-.15,1.2-.4,1.67-.77.48-.37.84-.81,1.09-1.32.25-.51.38-1.07.38-1.67,0-.89-.22-1.67-.66-2.33-.44-.66-1.08-1.17-1.9-1.54-.82-.37-1.79-.55-2.89-.55h-6.38v14.24h3.43v-5.44ZM195.32,131.18h2.65c.48,0,.89.09,1.23.26.35.17.62.4.82.69.2.29.3.62.3,1.01s-.1.73-.3,1.02c-.2.29-.47.52-.83.69s-.76.25-1.22.25h-2.65v-3.92Z" fill="#508eee" stroke-width="0"></path>
    <path d="M209.94,140.08h5l.84,2.82h3.51l-4.73-14.24h-4.2l-4.77,14.24h3.49l.88-2.82ZM212.43,131.4h.04l1.9,6.24h-3.86l1.92-6.24Z" fill="#508eee" stroke-width="0"></path>
    <polygon points="223.86 132.84 223.9 132.84 227.59 142.9 230.45 142.9 234.14 132.84 234.18 132.84 234.18 142.9 237.35 142.9 237.35 128.66 232.78 128.66 229.04 139.1 229.02 139.1 225.31 128.66 220.7 128.66 220.7 142.9 223.86 142.9 223.86 132.84" fill="#508eee" stroke-width="0"></polygon>
    <polygon points="243.14 132.84 243.18 132.84 246.87 142.9 249.72 142.9 253.42 132.84 253.46 132.84 253.46 142.9 256.62 142.9 256.62 128.66 252.05 128.66 248.32 139.1 248.3 139.1 244.58 128.66 239.97 128.66 239.97 142.9 243.14 142.9 243.14 132.84" fill="#508eee" stroke-width="0"></polygon>
    <polygon points="268.73 140.18 262.55 140.18 262.55 136.8 267.71 136.8 267.71 134.42 262.55 134.42 262.55 131.36 268.53 131.36 268.53 128.66 259.25 128.66 259.25 142.9 268.73 142.9 268.73 140.18" fill="#508eee" stroke-width="0"></polygon>
    <path d="M365.04,172.16l-55.78-52.07c-5.87-5.48-13.53-8.5-21.56-8.5H111.82c-8.08,0-15.76,3.05-21.65,8.58l-55.3,52.01c-6.32,5.95-9.95,14.34-9.95,23.02v79.49c0,7.58,6.42,13.74,14.31,13.74h321.52c7.89,0,14.31-6.16,14.31-13.74v-79.43c0-8.72-3.66-17.14-10.03-23.1ZM370.39,274.68c0,4.99-4.32,9.05-9.63,9.05H39.24c-5.31,0-9.63-4.06-9.63-9.05v-79.49c0-7.39,3.09-14.54,8.47-19.6l55.3-52.01c5.01-4.71,11.56-7.31,18.43-7.31h175.88c6.84,0,13.36,2.57,18.36,7.24l55.78,52.07c5.43,5.07,8.55,12.24,8.55,19.67v79.43Z" fill="#508eee" stroke-width="0"></path>
    <path d="M127.68,257.89l-4.78,14.24h3.49s.88-2.82.88-2.82h5s.83,2.83.83,2.83h3.51s-4.72-14.24-4.72-14.24h-4.2ZM127.84,266.87l1.92-6.24h.04l1.89,6.24h-3.86Z" fill="#508eee" stroke-width="0"></path>
    <path d="M147.44,267.99c-.33.54-.76.96-1.3,1.25-.54.29-1.13.44-1.79.44-.77,0-1.45-.18-2.04-.55-.58-.37-1.04-.91-1.36-1.63-.32-.72-.48-1.55-.48-2.48,0-.97.15-1.81.44-2.52.29-.71.7-1.25,1.22-1.62.52-.37,1.13-.56,1.83-.56.53,0,1,.13,1.42.38.41.25.76.61,1.05,1.06.29.45.48,1,.59,1.64l3.18-.6c-.16-1.09-.53-2.05-1.1-2.86-.57-.81-1.29-1.43-2.17-1.86-.88-.43-1.87-.64-2.97-.64-1.41,0-2.64.31-3.67.93-1.03.62-1.83,1.49-2.4,2.62-.57,1.13-.85,2.47-.85,4.03,0,1.55.3,2.89.89,4.02s1.45,2.01,2.55,2.62c1.1.61,2.39.92,3.85.92,1.24,0,2.36-.24,3.37-.72s1.82-1.17,2.44-2.08c.62-.91,1-1.98,1.16-3.22l-3.2-.48c-.12.73-.35,1.37-.67,1.91Z" fill="#508eee" stroke-width="0"></path>
    <path d="M162.94,268c-.33.54-.76.96-1.3,1.25-.54.29-1.13.44-1.79.44-.78,0-1.46-.18-2.04-.55-.58-.37-1.04-.91-1.35-1.63-.32-.72-.48-1.55-.48-2.48,0-.97.15-1.81.44-2.52s.7-1.25,1.22-1.62c.52-.37,1.13-.56,1.83-.56.53,0,1,.13,1.42.38.41.25.76.61,1.05,1.06.29.45.48,1,.59,1.64l3.18-.6c-.16-1.09-.53-2.05-1.1-2.86s-1.29-1.43-2.17-1.86c-.88-.43-1.87-.64-2.97-.64-1.42,0-2.64.31-3.67.93-1.03.62-1.83,1.49-2.4,2.62-.57,1.13-.85,2.47-.85,4.03,0,1.55.3,2.89.89,4.02s1.45,2.01,2.55,2.62c1.1.61,2.39.92,3.86.92,1.24,0,2.36-.24,3.37-.72,1.01-.48,1.82-1.17,2.44-2.08.62-.91,1-1.98,1.15-3.22l-3.2-.48c-.12.73-.35,1.37-.67,1.91Z" fill="#508eee" stroke-width="0"></path>
    <polygon points="174.44 253.56 172.85 256.16 173.53 256.58 175.14 254 174.44 253.56" fill="#508eee" stroke-width="0"></polygon>
    <polygon points="171.74 266.06 176.9 266.06 176.91 263.68 171.74 263.68 171.75 260.62 177.72 260.62 177.73 257.92 168.44 257.91 168.43 272.16 177.92 272.16 177.92 269.44 171.74 269.44 171.74 266.06" fill="#508eee" stroke-width="0"></polygon>
    <polygon points="183.42 257.93 179.99 257.92 179.98 272.16 188.75 272.17 188.75 269.29 183.41 269.29 183.42 257.93" fill="#508eee" stroke-width="0"></polygon>
    <polygon points="196.27 253.58 194.68 256.17 195.35 256.6 196.97 254.02 196.27 253.58" fill="#508eee" stroke-width="0"></polygon>
    <polygon points="193.57 266.07 198.73 266.08 198.73 263.7 193.57 263.69 193.57 260.63 199.55 260.64 199.55 257.94 190.27 257.93 190.26 272.17 199.75 272.18 199.75 269.46 193.57 269.45 193.57 266.07" fill="#508eee" stroke-width="0"></polygon>
    <path d="M213.39,270.16c-.15.1-.3.15-.45.15-.16,0-.3-.06-.42-.19-.12-.13-.21-.3-.28-.53l-.49-1.78c-.08-.43-.22-.77-.43-1.03s-.48-.47-.84-.63v-.02c.64-.15,1.2-.4,1.67-.77.48-.37.84-.81,1.09-1.32.25-.51.38-1.07.38-1.67,0-.89-.22-1.67-.66-2.33-.44-.66-1.07-1.17-1.9-1.54-.82-.37-1.79-.55-2.89-.55h-6.38s-.01,14.24-.01,14.24h3.43s0-5.44,0-5.44h1.73c.31,0,.61.12.9.36.29.24.49.56.61.96l.63,2.36c.11.43.29.8.53,1.12.25.32.55.57.91.74.36.17.78.26,1.25.26.53,0,1.05-.11,1.56-.32.51-.21.94-.51,1.3-.88l-.79-1.62c-.16.19-.32.33-.47.43ZM209.94,263.45c-.2.29-.47.52-.83.69-.35.17-.76.25-1.22.25h-2.65s0-3.92,0-3.92h2.65c.48,0,.89.09,1.23.26.35.17.62.4.82.69.2.29.29.62.29,1.01,0,.39-.1.73-.3,1.02Z" fill="#508eee" stroke-width="0"></path>
    <path d="M220.27,257.95l-4.78,14.24h3.49s.88-2.82.88-2.82h5s.83,2.83.83,2.83h3.51s-4.72-14.24-4.72-14.24h-4.2ZM220.43,266.93l1.92-6.24h.04l1.89,6.24h-3.86Z" fill="#508eee" stroke-width="0"></path>
    <polygon points="228.39 260.84 232.29 260.84 232.28 272.2 235.73 272.2 235.73 260.84 239.63 260.85 239.63 257.97 228.39 257.96 228.39 260.84" fill="#508eee" stroke-width="0"></polygon>
    <rect x="241.13" y="257.97" width="3.43" height="14.24" fill="#508eee" stroke-width="0"></rect>
    <path d="M258.02,258.46c-1.12-.63-2.43-.94-3.96-.94-1.47,0-2.77.31-3.9.94-1.13.63-2,1.51-2.62,2.66-.62,1.15-.93,2.47-.93,3.98,0,1.52.31,2.85.94,3.98.62,1.13,1.5,2.02,2.62,2.65,1.12.63,2.42.95,3.89.95,1.52,0,2.84-.31,3.95-.95,1.11-.63,1.98-1.52,2.6-2.66.63-1.14.94-2.46.94-3.97,0-1.52-.31-2.85-.93-3.99-.62-1.14-1.48-2.02-2.6-2.65ZM257.63,267.57c-.33.71-.8,1.26-1.41,1.65-.61.39-1.33.58-2.16.58-.79,0-1.49-.19-2.09-.58-.6-.39-1.08-.94-1.42-1.65-.34-.71-.51-1.54-.51-2.47,0-.95.17-1.77.51-2.48.34-.71.81-1.25,1.42-1.64.61-.39,1.3-.58,2.09-.58.83,0,1.55.19,2.16.58.61.39,1.08.93,1.41,1.64.33.71.49,1.53.49,2.48,0,.93-.16,1.76-.49,2.47Z" fill="#508eee" stroke-width="0"></path>
    <polygon points="272.94 268.19 272.9 268.19 267.76 257.99 263.58 257.99 263.57 272.23 266.79 272.23 266.8 262.05 266.84 262.05 271.99 272.23 276.14 272.24 276.15 257.99 272.94 257.99 272.94 268.19" fill="#508eee" stroke-width="0"></polygon>
    <rect x="97.74" y="155.36" width="4.95" height="48.22" fill="#508eee" stroke-width="0"></rect>
    <rect x="76.14" y="166.28" width="4.95" height="45.21" fill="#508eee" stroke-width="0"></rect>
    <rect x="323.56" y="170.08" width="4.96" height="29.52" fill="#508eee" stroke-width="0"></rect>
    <path d="M346.55,185.83h-4.96v45.68c0,2.05-1.66,3.71-3.71,3.71h-32.46c-2.05,0-3.71-1.66-3.71-3.71v-3.94c0-2.72,2.82-4.51,5.28-3.36,4.56,2.13,10.35,3.39,16.72,3.39h4.61v-4.95h-4.61c-13.16,0-22-5.77-22-11.15v-1.91c0-2.72,2.82-4.49,5.29-3.36,3.67,1.69,8.1,2.66,12.92,2.66h3.9v-4.95h-3.9c-9.87,0-18.21-5.11-18.21-11.15v-.69c0-2.67,2.73-4.46,5.18-3.4,2.23.96,4.71,1.49,7.33,1.49h2.82v-4.95h-2.82c-6.9,0-12.51-5-12.51-11.15h0c0-2.61,2.61-4.37,5.06-3.45,1.48.55,3.06.85,4.7.85h2.31v-4.95h-2.31c-5.38,0-9.76-5-9.76-11.15h-4.96c0,6.15-4.38,11.15-9.76,11.15h-2.31v4.95h2.31c1.64,0,3.23-.3,4.7-.85,2.45-.91,5.06.84,5.06,3.45h0c0,6.15-5.61,11.15-12.51,11.15h-2.82v4.95h2.82c2.62,0,5.1-.54,7.33-1.49,2.45-1.05,5.18.73,5.18,3.4v.69c0,6.04-8.34,11.15-18.2,11.15h-3.9v4.95h3.9c4.82,0,9.25-.98,12.92-2.66,2.47-1.14,5.29.64,5.29,3.36v1.91c0,5.39-8.84,11.15-22,11.15h-4.61v4.95h4.61c6.37,0,12.16-1.26,16.72-3.39,2.46-1.15,5.28.64,5.28,3.36v3.94c0,2.05-1.66,3.71-3.71,3.71h-53.96c-2.05,0-3.71-1.66-3.71-3.71v-3.73c0-2.73,2.83-4.5,5.31-3.35,4.29,1.99,9.66,3.16,15.54,3.16h4.4v-4.95h-4.4c-11.3,0-20.85-5.11-20.85-11.15v-1.84c0-2.72,2.82-4.49,5.3-3.35,3.58,1.64,7.89,2.59,12.57,2.59h3.83v-4.95h-3.83c-9.69,0-17.87-5.11-17.87-11.15v-.68c0-2.67,2.73-4.45,5.18-3.4,2.21.95,4.67,1.48,7.27,1.48h2.81v-4.95h-2.81c-6.86,0-12.45-5-12.45-11.15h-4.96c0,6.15-5.58,11.15-12.45,11.15h-2.81v4.95h2.81c2.59,0,5.06-.53,7.27-1.48,2.45-1.05,5.18.73,5.18,3.4v.68c0,6.04-8.18,11.15-17.87,11.15h-3.83v4.95h3.83c4.68,0,8.99-.95,12.57-2.59,2.48-1.14,5.3.63,5.3,3.35v1.84c0,6.04-9.55,11.15-20.85,11.15h-4.4v4.95h4.4c5.88,0,11.25-1.17,15.54-3.16,2.48-1.15,5.31.61,5.31,3.35v3.73c0,2.05-1.66,3.71-3.71,3.71h-53.96c-2.05,0-3.71-1.66-3.71-3.71v-3.62c0-2.69,2.79-4.52,5.23-3.38,4.17,1.95,9.35,3.09,15.02,3.09h4.28v-4.95h-4.28c-10.98,0-20.25-5.11-20.25-11.15v-1.28c0-2.72,2.81-4.48,5.29-3.36,2.85,1.29,6.14,2.03,9.63,2.03h3.28v-4.95h-3.28c-8.23,0-14.92-5-14.92-11.15h-4.96c0,6.15-6.69,11.15-14.92,11.15h-3.28v4.95h3.28c3.5,0,6.78-.74,9.63-2.03,2.48-1.12,5.29.63,5.29,3.36v1.28c0,6.04-9.27,11.15-20.25,11.15h-4.28v4.95h4.28c5.67,0,10.85-1.14,15.02-3.09,2.44-1.14,5.23.69,5.23,3.38v3.62c0,2.05-1.66,3.71-3.71,3.71h-53.96c-2.05,0-3.71-1.66-3.71-3.71v-3.86c0-2.72,2.82-4.5,5.29-3.35,4.46,2.08,10.07,3.3,16.25,3.3h4.53v-4.95h-4.53c-11.68,0-21.54-5.11-21.54-11.15h-4.95c0,6.04-9.86,11.15-21.54,11.15h-4.53v4.95h4.53c6.17,0,11.79-1.22,16.25-3.3,2.47-1.15,5.29.63,5.29,3.35v3.86c0,2.05-1.66,3.71-3.71,3.71h-31.18c-2.05,0-3.71-1.66-3.71-3.71v-46.71h-4.95v46.71c0,2.05-1.66,3.71-3.71,3.71h-1.22v4.95h301.5v-4.95h-.49c-2.05,0-3.71-1.66-3.71-3.71v-45.68Z" fill="#508eee" stroke-width="0"></path>
    <rect x="164.08" y="155.36" width="4.96" height="29.43" fill="#508eee" stroke-width="0"></rect>
    <rect x="184.76" y="155.36" width="4.96" height="38.72" fill="#508eee" stroke-width="0"></rect>
    <rect x="206.23" y="155.36" width="4.96" height="25.52" fill="#508eee" stroke-width="0"></rect>
    <rect x="230.42" y="155.36" width="4.96" height="10.19" fill="#508eee" stroke-width="0"></rect>
    <rect x="252.31" y="155.36" width="4.96" height="21.84" fill="#508eee" stroke-width="0"></rect>
    <rect x="272.17" y="155.36" width="4.96" height="21.84" fill="#508eee" stroke-width="0"></rect>
    <rect x="141.41" y="155.36" width="4.96" height="37.42" fill="#508eee" stroke-width="0"></rect>
    <rect x="120.06" y="155.36" width="4.96" height="56.13" fill="#508eee" stroke-width="0"></rect>
    <rect x="49.25" y="260.63" width="57.16" height="4.57" fill="#508eee" stroke-width="0"></rect>
    <rect x="293.59" y="260.63" width="57.16" height="4.57" fill="#508eee" stroke-width="0"></rect>
  </g>
</svg>
