<?xml version="1.0" encoding="UTF-8"?>
<svg xmlns="http://www.w3.org/2000/svg" width="400" height="400" viewBox="0 0 400 400" fill="none">
  <path d="M328.53,172.67l-14.42-64.22c-2.65-11.79-9.3-22.44-18.73-29.99s-21.28-11.71-33.37-11.71h-123.93c-12.07,0-23.91,4.15-33.34,11.69-9.43,7.54-16.09,18.18-18.74,29.95l-14.47,64.14c-8.86,39.26.47,79.81,25.61,111.25s62.63,49.47,102.88,49.47,77.71-18.01,102.84-49.41c25.13-31.4,34.49-71.92,25.68-111.17Z" fill="#a3cbfd" stroke-width="0"></path>
  <g>
    <path d="M132.51,274.3c-.43-1.18-.51-2.4-.22-3.65s.94-2.46,1.95-3.63c1.02-1.18,2.11-2.01,3.27-2.5,1.16-.48,2.34-.62,3.53-.42s2.32.77,3.39,1.69c.83.72,1.44,1.53,1.83,2.42.39.9.53,1.84.43,2.83-.1.99-.44,1.95-1.03,2.89l-2.8-1.62c.34-.56.54-1.1.62-1.63.08-.53.05-1.03-.1-1.49-.15-.46-.42-.87-.83-1.21-.52-.45-1.11-.71-1.75-.77-.64-.06-1.3.08-1.98.43-.68.34-1.34.88-1.98,1.62-.61.71-1.03,1.44-1.26,2.19-.23.75-.24,1.46-.04,2.12.2.66.6,1.24,1.19,1.75.49.43,1.04.7,1.64.83s1.2.1,1.8-.1c.6-.2,1.19-.53,1.76-1.01l2.11,2.46c-.92.84-1.92,1.4-2.98,1.69-1.06.28-2.13.28-3.2-.02-1.08-.29-2.08-.85-3.02-1.65-1.11-.96-1.89-2.03-2.32-3.21Z" fill="#000" stroke-width="0"></path>
    <path d="M153.1,272.96l3.57,2.22-3.5,14.59-2.98-1.85.78-2.84-4.24-2.64-2.23,1.93-2.96-1.84,11.58-9.57ZM151.77,282.71l1.69-6.3-.03-.02-4.92,4.29,3.27,2.04Z" fill="#000" stroke-width="0"></path>
    <path d="M160.78,277.88l4.29,1.69-.38,11.07h.02s7.31-8.33,7.31-8.33l4.25,1.68-5.23,13.24-2.94-1.16,3.69-9.36-.04-.02-7.13,8-2.66-1.05.26-10.71-.04-.02-3.69,9.36-2.94-1.16,5.23-13.24Z" fill="#000" stroke-width="0"></path>
    <path d="M177.66,284.14l6.14,1.23c1.03.21,1.9.58,2.62,1.11.72.54,1.22,1.19,1.52,1.97.3.77.35,1.61.17,2.51-.18.92-.56,1.68-1.12,2.29-.57.61-1.27,1.03-2.12,1.25-.85.22-1.78.23-2.79.02l-2.9-.58-.96,4.82-3.34-.67,2.79-13.96ZM181.95,291.91c.47.09.89.09,1.28,0,.39-.1.72-.29.99-.57.27-.28.45-.63.53-1.05.12-.61,0-1.16-.34-1.63-.35-.47-.88-.78-1.6-.92l-2.3-.46-.83,4.18,2.28.46Z" fill="#000" stroke-width="0"></path>
    <path d="M193.66,286.82l5.59.05c2.34.02,4.13.65,5.39,1.89,1.25,1.24,1.87,3,1.85,5.28-.01,1.53-.31,2.83-.88,3.88-.57,1.05-1.41,1.85-2.51,2.4-1.1.54-2.43.81-4,.79l-5.57-.05.14-14.24ZM199.1,298.39c.84,0,1.56-.16,2.15-.49.59-.33,1.04-.83,1.36-1.49.32-.66.48-1.46.47-2.41.01-1.4-.32-2.49-1-3.26-.68-.77-1.64-1.17-2.9-1.18l-2.22-.02-.08,8.82,2.22.02Z" fill="#000" stroke-width="0"></path>
    <path d="M207.56,286.67l9.19-1.27.37,2.67-5.92.82.42,3.03,5.11-.71.33,2.36-5.11.71.46,3.35,6.12-.85.37,2.69-9.4,1.3-1.95-14.11Z" fill="#000" stroke-width="0"></path>
    <path d="M221.6,284.35l6.41-2.12c.96-.32,1.82-.44,2.58-.38s1.42.31,1.96.75c.54.44.93,1.04,1.19,1.8.16.49.22.97.18,1.43-.04.46-.19.87-.44,1.25-.25.38-.59.7-1.03.97l.02.06c.86-.12,1.61.03,2.24.44.63.41,1.08,1.04,1.36,1.89.26.77.29,1.5.12,2.17-.18.68-.57,1.28-1.18,1.81-.61.53-1.42.96-2.41,1.29l-6.53,2.16-4.46-13.52ZM229.35,287.98c.36-.12.66-.29.89-.52.23-.22.38-.48.45-.78.07-.3.05-.6-.06-.92-.16-.49-.46-.83-.88-1.01-.43-.18-.93-.18-1.51.01l-2.61.86,1.07,3.23,2.65-.88ZM231.17,293.55c.45-.15.81-.34,1.07-.57.26-.23.43-.51.51-.82.08-.31.07-.64-.05-.99-.18-.56-.51-.93-.97-1.11s-1.02-.17-1.68.05l-2.65.88,1.14,3.44,2.63-.87Z" fill="#000" stroke-width="0"></path>
    <path d="M236.76,278.68l3.75-1.9,10.65,10.57-3.13,1.58-2.02-2.14-4.46,2.26.49,2.91-3.11,1.58-2.17-14.86ZM244.4,284.87l-4.51-4.71-.04.02,1.11,6.43,3.44-1.74Z" fill="#000" stroke-width="0"></path>
    <path d="M254.86,284.65c-.95.2-1.86.14-2.72-.16-.86-.3-1.59-.84-2.21-1.61l2.28-2.26c.35.45.76.78,1.23.98.47.2.96.26,1.47.18s.99-.28,1.44-.6c.39-.27.69-.58.89-.91s.31-.66.32-1c0-.33-.08-.63-.28-.91-.25-.36-.59-.56-1.02-.59-.43-.03-1,.1-1.7.4l-1.82.67c-1.36.55-2.5.74-3.42.58-.92-.16-1.7-.69-2.33-1.6-.5-.71-.77-1.47-.81-2.28s.16-1.6.6-2.37c.45-.77,1.12-1.47,2.01-2.09.77-.54,1.57-.89,2.4-1.05.83-.16,1.63-.12,2.38.12.75.24,1.39.68,1.92,1.31l-2.15,2.29c-.29-.34-.61-.59-.96-.76-.35-.17-.72-.23-1.11-.2-.39.04-.75.17-1.08.41-.31.22-.55.48-.72.77-.17.3-.24.59-.23.87s.11.56.29.82c.25.36.58.56.98.59.4.04.93-.09,1.59-.37l1.78-.69c1.41-.57,2.59-.78,3.53-.62.94.15,1.74.69,2.39,1.59.54.76.81,1.57.82,2.42.01.85-.23,1.68-.73,2.51s-1.22,1.57-2.17,2.23c-.96.67-1.91,1.11-2.86,1.3Z" fill="#000" stroke-width="0"></path>
    <path d="M254.68,267.32l6.83-6.29,1.83,1.99-4.4,4.05,2.07,2.25,3.8-3.5,1.61,1.75-3.8,3.5,2.29,2.49,4.55-4.19,1.84,2-6.98,6.43-9.65-10.47Z" fill="#000" stroke-width="0"></path>
  </g>
  <g>
    <path d="M135.3,110.04h2.96c1.03,0,1.94-.19,2.73-.57.79-.38,1.4-.92,1.84-1.64.44-.71.65-1.54.65-2.47,0-.92-.22-1.73-.66-2.43-.44-.7-1.07-1.24-1.88-1.63-.81-.39-1.74-.58-2.78-.58h-6.26s-.01,14.24-.01,14.24h3.41s0-4.92,0-4.92ZM135.3,103.24h2.35c.73,0,1.32.2,1.75.59.43.39.65.9.65,1.53,0,.43-.11.8-.32,1.13-.21.33-.5.58-.86.75-.36.17-.78.26-1.25.26h-2.33s0-4.26,0-4.26Z" fill="#000" stroke-width="0"></path>
    <path d="M148.43,109.53h1.73c.31,0,.61.12.9.36.29.24.49.56.61.96l.63,2.36c.11.43.28.8.53,1.12.24.32.55.57.91.74.36.17.78.26,1.25.26.53,0,1.05-.11,1.56-.32.51-.21.94-.51,1.3-.88l-.79-1.62c-.16.19-.32.33-.47.43s-.3.15-.45.15c-.16,0-.3-.06-.42-.19-.12-.13-.21-.3-.27-.53l-.49-1.78c-.08-.43-.22-.77-.43-1.03-.2-.26-.48-.47-.84-.63v-.02c.64-.15,1.2-.4,1.67-.77.48-.37.84-.81,1.09-1.32.25-.51.38-1.07.38-1.67,0-.89-.22-1.67-.66-2.33-.44-.66-1.07-1.17-1.9-1.54-.82-.37-1.78-.55-2.89-.55h-6.38s-.01,14.24-.01,14.24h3.43s0-5.44,0-5.44ZM148.44,103.25h2.65c.48,0,.89.09,1.23.26.35.17.62.4.82.69s.3.62.3,1.01c0,.39-.1.73-.3,1.02-.2.29-.47.52-.83.69-.35.17-.76.25-1.22.25h-2.65s0-3.92,0-3.92Z" fill="#000" stroke-width="0"></path>
    <path d="M162.05,114.49c1.12.63,2.42.95,3.89.95,1.52,0,2.84-.31,3.95-.95,1.11-.63,1.98-1.52,2.6-2.66s.94-2.46.94-3.97c0-1.52-.31-2.85-.92-3.99-.62-1.14-1.48-2.02-2.6-2.65-1.11-.63-2.43-.94-3.96-.94-1.47,0-2.77.31-3.9.94s-2,1.51-2.62,2.66c-.62,1.15-.93,2.47-.93,3.98,0,1.52.31,2.85.94,3.98.62,1.13,1.5,2.02,2.62,2.65ZM162.43,105.38c.34-.71.81-1.25,1.42-1.64.61-.39,1.3-.58,2.09-.58.83,0,1.55.2,2.16.58.61.39,1.08.93,1.41,1.64.33.71.49,1.53.49,2.48,0,.93-.16,1.76-.49,2.47s-.8,1.26-1.41,1.65c-.61.39-1.33.58-2.16.58-.79,0-1.49-.19-2.09-.58-.6-.39-1.08-.94-1.42-1.65s-.51-1.54-.51-2.47c0-.95.17-1.77.51-2.48Z" fill="#000" stroke-width="0"></path>
    <path d="M178.1,114.48c1.01.62,2.18.93,3.53.93.72,0,1.41-.11,2.06-.34.65-.23,1.23-.55,1.74-.96.51-.41.94-.91,1.28-1.48h.02l.26,2.36h2.55s0-8.08,0-8.08h-8.73s0,2.17,0,2.17h5.41c-.03.71-.2,1.32-.53,1.84-.33.52-.77.93-1.33,1.22-.56.29-1.19.44-1.9.44-.83,0-1.55-.2-2.17-.59-.62-.39-1.1-.95-1.45-1.67-.35-.72-.52-1.56-.52-2.52,0-.92.15-1.73.46-2.43.31-.7.74-1.24,1.31-1.63.56-.39,1.21-.58,1.95-.58.45,0,.87.1,1.25.29.39.19.73.46,1.03.8.3.34.54.74.71,1.21l3.16-.7c-.24-.89-.67-1.68-1.26-2.35-.6-.67-1.31-1.2-2.15-1.57-.84-.37-1.74-.56-2.7-.56-1.43,0-2.69.32-3.77.95-1.09.63-1.93,1.52-2.52,2.66s-.89,2.46-.89,3.97c0,1.51.28,2.83.84,3.97.56,1.14,1.35,2.02,2.35,2.64Z" fill="#000" stroke-width="0"></path>
    <path d="M195.32,109.56h1.73c.31,0,.61.12.9.36.29.24.49.56.61.96l.63,2.36c.11.43.28.8.53,1.12s.55.57.91.74c.36.17.78.26,1.25.26.53,0,1.05-.11,1.56-.32.51-.21.94-.51,1.3-.88l-.79-1.62c-.16.19-.32.33-.47.43-.15.1-.3.15-.45.15-.16,0-.3-.06-.42-.19-.12-.13-.21-.3-.27-.53l-.49-1.78c-.08-.43-.22-.77-.43-1.03-.2-.26-.48-.47-.84-.63v-.02c.64-.15,1.2-.4,1.67-.77.48-.37.84-.81,1.09-1.32.25-.51.38-1.07.38-1.67,0-.89-.22-1.67-.66-2.33-.44-.66-1.07-1.17-1.9-1.54-.82-.37-1.78-.55-2.89-.55h-6.38s-.01,14.24-.01,14.24h3.43s0-5.44,0-5.44ZM195.33,103.28h2.65c.48,0,.89.09,1.23.26.35.17.62.4.82.69.2.29.3.62.3,1.01,0,.39-.1.73-.3,1.02-.2.29-.47.52-.83.69-.35.17-.76.25-1.22.25h-2.65s0-3.92,0-3.92Z" fill="#000" stroke-width="0"></path>
    <path d="M209.94,112.19h5s.83,2.82.83,2.82h3.51s-4.72-14.24-4.72-14.24h-4.2s-4.78,14.23-4.78,14.23h3.49s.88-2.82.88-2.82ZM212.44,103.52h.04l1.89,6.24h-3.86s1.92-6.24,1.92-6.24Z" fill="#000" stroke-width="0"></path>
    <polygon points="223.87 104.96 223.91 104.96 227.6 115.03 230.45 115.03 234.15 104.97 234.19 104.97 234.19 115.03 237.35 115.03 237.36 100.79 232.79 100.79 229.05 111.23 229.03 111.23 225.32 100.79 220.71 100.78 220.7 115.02 223.86 115.02 223.87 104.96" fill="#000" stroke-width="0"></polygon>
    <polygon points="243.15 104.98 243.19 104.98 246.87 115.04 249.73 115.04 253.43 104.99 253.47 104.99 253.46 115.05 256.62 115.05 256.63 100.81 252.06 100.8 248.32 111.24 248.3 111.24 244.6 100.8 239.99 100.8 239.98 115.04 243.14 115.04 243.15 104.98" fill="#000" stroke-width="0"></polygon>
    <polygon points="268.74 112.34 262.56 112.33 262.56 108.95 267.72 108.96 267.72 106.58 262.56 106.57 262.56 103.51 268.54 103.52 268.54 100.82 259.26 100.81 259.25 115.05 268.73 115.06 268.74 112.34" fill="#000" stroke-width="0"></polygon>
    <path d="M262.16,144.99c-2.49-11.1-12.18-18.85-23.56-18.85h-77.16c-11.36,0-21.05,7.74-23.55,18.83l-9.01,39.94c-4.9,21.73.26,44.18,14.17,61.58,13.91,17.4,34.67,27.38,56.95,27.38s43.01-9.97,56.93-27.35c13.91-17.38,19.09-39.81,14.21-61.53l-8.98-39.99ZM153.99,200.83v-.15c0-10.09,8.2-18.3,18.29-18.3,4.3,0,8.39,1.51,11.64,4.2.79.66.99,1.8.5,2.7l-22.47,41.42c-.38.7-1.11,1.14-1.91,1.14h-19.62c-.83,0-1.6-.47-1.96-1.22-3.55-7.32-5.74-15.18-6.49-23.24,4.22-2.89,9.12-4.43,14.29-4.43,1.68,0,3.37.17,5.02.5l2.74-2.3c0-.11,0-.22-.02-.34ZM253.36,243.65c-.51.64-1.03,1.26-1.56,1.87-.41.48-1.02.75-1.65.75h-17.88s0,4.57,0,4.57h8.56c2.06,0,2.98,2.6,1.36,3.88-1.77,1.4-3.6,2.71-5.5,3.92-.35.23-.77.34-1.19.34h-35.32s0,4.57,0,4.57h22.97c.92,0,1.14,1.28.28,1.6-7.4,2.7-15.31,4.13-23.43,4.13s-15.34-1.31-22.45-3.78c-1.06-.37-.79-1.95.34-1.95h10.14v-4.57h-23.52c-.42,0-.83-.12-1.19-.34-1.89-1.21-3.73-2.52-5.5-3.92-1.61-1.28-.69-3.88,1.36-3.88h59.71v-4.57h-69.03c-.63,0-1.23-.27-1.65-.75-.54-.62-1.07-1.25-1.58-1.89-.99-1.24-1.93-2.51-2.82-3.81-.99-1.43.07-3.39,1.81-3.39h20.23s71.56,0,71.56,0h16.99c1.74,0,2.8,1.96,1.81,3.39-.9,1.31-1.84,2.59-2.84,3.84ZM191.17,231.85c-1.65,0-2.7-1.76-1.92-3.21l9.95-18.46c.52-.93,1.4-1.46,2.42-1.46s1.9.53,2.4,1.42l9.96,18.5c.78,1.45-.27,3.21-1.92,3.21h-20.89ZM241.03,230.21l-7.74-14.26c-.66-1.22-.04-2.78,1.31-3.13,1.19-.31,2.43-.47,3.68-.47,8.13,0,14.74,6.61,14.74,14.74,0,1.05-.12,2.09-.34,3.1s-1.11,1.67-2.12,1.67h-7.36c-.84,0-1.65-.47-1.98-1.25-.06-.13-.12-.27-.19-.4ZM259.59,231.85h0c-1.31,0-2.32-1.15-2.15-2.46.1-.76.15-1.53.15-2.31,0-10.65-8.66-19.31-19.31-19.31-2.27,0-4.52.4-6.63,1.18-1.02.38-2.17-.03-2.69-.99l-24.86-45.83.25.14,5.51-10.16-4.02-2.18-2.27,4.18c-.82,1.52-3,1.52-3.82,0l-2.27-4.18-4.02,2.18,41.52,76.54c.79,1.45-.26,3.21-1.91,3.21h-10.86c-.8,0-1.54-.44-1.92-1.14l-12.25-22.76c-1.33-2.37-3.73-3.79-6.4-3.79h0c-2.68,0-5.07,1.42-6.42,3.83l-12.25,22.73c-.38.7-1.12,1.14-1.92,1.14h-10.85c-1.65,0-2.7-1.76-1.91-3.21l27.38-50.46-4.02-2.18-2.9,5.35c-.61,1.13-2.09,1.51-3.14.76-3.84-2.76-8.48-4.28-13.32-4.28-11.9,0-21.71,9.13-22.77,20.76-1.08-.12-2.17-.18-3.25-.18-5.18,0-10.14,1.32-14.58,3.8-.09-5.41.45-10.87,1.67-16.29l9.01-39.94c2.01-8.92,9.94-15.26,19.09-15.26h77.16c9.22,0,17.07,6.28,19.09,15.28l8.98,39.99c3.43,15.28,1.53,30.92-5.13,44.66-.36.75-1.13,1.21-1.96,1.21Z" fill="#000" stroke-width="0"></path>
    <path d="M111.77,181.34l11.84-52.45-4.46-1.01-11.84,52.45c-6.2,27.48.03,56.09,17.09,78.49l3.64-2.77c-16.24-21.32-22.17-48.55-16.27-74.71Z" fill="#000" stroke-width="0"></path>
    <path d="M280.94,127.92l-4.46,1,11.79,52.51c5.72,25.47.17,52.15-15.22,73.19l3.69,2.7c16.17-22.11,22-50.14,16-76.9l-11.79-52.51Z" fill="#000" stroke-width="0"></path>
    <path d="M312.91,176.17l-14.42-64.22c-3.86-17.19-18.86-29.2-36.48-29.2h-123.93c-17.6,0-32.6,11.99-36.47,29.16l-14.47,64.14c-7.78,34.49.42,70.11,22.49,97.73,22.08,27.62,55.02,43.46,90.38,43.46s68.26-15.82,90.34-43.41c22.08-27.59,30.3-63.18,22.56-97.66ZM286.78,270.97c-21.21,26.5-52.83,41.69-86.77,41.69s-65.6-15.21-86.81-41.74-29.08-60.74-21.6-93.87l14.47-64.14c3.4-15.07,16.56-25.59,32.01-25.59h123.93c15.46,0,28.63,10.54,32.02,25.62l14.42,64.22c7.44,33.11-.46,67.3-21.67,93.8Z" fill="#000" stroke-width="0"></path>
    <path d="M252.68,180.81l-1.85-3.79c-5.35.27-10.32-2.65-12.67-7.47-2.35-4.81-1.59-10.54,1.92-14.58l-1.85-3.78c-2.92.15-5.7,1-8.24,2.51-7.32,4.36-10.55,13.33-7.68,21.34,1.73,4.82,5.42,8.68,10.12,10.59,2.16.88,4.46,1.32,6.75,1.32,2.69,0,5.38-.6,7.84-1.81,2.18-1.06,4.08-2.52,5.66-4.34ZM245.01,181.03c-3.4,1.66-7.36,1.79-10.86.36-3.55-1.45-6.23-4.25-7.54-7.9-2.1-5.86.36-12.67,5.72-15.86.4-.24.8-.45,1.22-.64-1.88,4.62-1.77,9.91.5,14.57,2.27,4.66,6.37,8,11.17,9.37-.07.03-.14.07-.21.1Z" fill="#000" stroke-width="0"></path>
    <circle cx="169.14" cy="144.5" r="3.3" fill="#000" stroke-width="0"></circle>
    <path d="M180.06,164.4c-1.82,0-3.3,1.48-3.3,3.3s1.48,3.3,3.3,3.3,3.3-1.48,3.3-3.3-1.48-3.3-3.3-3.3Z" fill="#000" stroke-width="0"></path>
    <path d="M149.86,162.77c-1.82,0-3.3,1.48-3.3,3.3s1.48,3.3,3.3,3.3,3.3-1.48,3.3-3.3-1.48-3.3-3.3-3.3Z" fill="#000" stroke-width="0"></path>
    <circle cx="252.58" cy="198.15" r="3.3" fill="#000" stroke-width="0"></circle>
    <path d="M225.17,140.85c0-1.82-1.48-3.3-3.3-3.3s-3.3,1.48-3.3,3.3,1.48,3.3,3.3,3.3,3.3-1.48,3.3-3.3Z" fill="#000" stroke-width="0"></path>
  </g>
</svg>
