<?xml version="1.0" encoding="UTF-8"?>
<svg xmlns="http://www.w3.org/2000/svg" width="400" height="400" viewBox="0 0 400 400" fill="none">
  <path d="M326.26,193.72l-6.13-20.18c.28-.29.56-.58.83-.89,3.96-4.55,5.76-10.6,4.92-16.58l-3.42-24.55,3.43-24.55c.83-5.98-.96-12.02-4.92-16.57-3.96-4.55-9.7-7.17-15.74-7.17h-12.99c-5.14-10.33-15.69-17.02-27.5-17.02h-129.44c-11.82,0-22.36,6.68-27.51,17.02h-12.99c-6.04,0-11.77,2.61-15.74,7.17-3.96,4.55-5.76,10.6-4.92,16.57l3.43,24.55-3.43,24.55c-.83,5.98.96,12.02,4.92,16.58.27.31.54.6.82.89l-6.13,20.18c-8.67,26.95.87,56.21,23.79,72.86l84.4,61.32c5.29,3.84,11.54,5.87,18.07,5.87s12.79-2.03,18.07-5.87l84.4-61.32c22.92-16.65,32.46-45.91,23.79-72.86Z" fill="#508eee" stroke-width="0"></path>
  <g>
    <path d="M127.38,229.48l-11.81,10.81-2.33-2.55,11.81-10.81,2.33,2.55Z" fill="#000" stroke-width="0"></path>
    <path d="M131.1,233.15l-.72,11.44,5.88-7.24,2.68,2.18-10.09,12.43-2.25-1.82.69-11.46-5.88,7.24-2.68-2.18,10.09-12.43,2.28,1.85Z" fill="#000" stroke-width="0"></path>
    <path d="M135.97,256.29l7.9-13.92,3,1.7-7.9,13.92-3-1.71ZM138.11,242.83l1.6-2.82,11.32,6.43-1.6,2.82-11.32-6.43Z" fill="#000" stroke-width="0"></path>
    <path d="M161.38,250.6l-1.23,3.01-6.07-2.48-1.09,2.67,5.4,2.2-1.23,3.01-5.4-2.2-1.28,3.13,6.07,2.48-1.23,3.01-9.27-3.78,6.05-14.82,9.27,3.78Z" fill="#000" stroke-width="0"></path>
    <path d="M163.38,251.32l6.06,1.62c.89.24,1.66.67,2.31,1.3.65.63,1.11,1.38,1.37,2.24s.28,1.72.05,2.57c-.26.96-.69,1.74-1.29,2.35s-1.33,1.02-2.18,1.21c-.85.2-1.76.17-2.74-.09l-2.79-.75-1.58,5.9-3.34-.89,4.14-15.47ZM168.56,259.36c.3-.08.56-.22.78-.43.22-.21.37-.47.45-.78s.08-.61,0-.89-.24-.53-.47-.74c-.23-.21-.5-.36-.81-.44l-2.64-.71-.88,3.27,2.64.71c.32.08.62.09.93.01ZM165.4,260.57l3.74,1,2.77,8.6-4.06-1.08-2.46-8.52Z" fill="#000" stroke-width="0"></path>
    <path d="M180.03,255.28l5.33,10.14,1.25-9.25,3.42.46-2.15,15.86-2.87-.39-5.38-10.15-1.25,9.25-3.42-.46,2.15-15.86,2.91.39Z" fill="#000" stroke-width="0"></path>
    <path d="M206.62,272.96l-3.76-.04-4.04-10.75-4.33,10.65-3.66-.04,6.66-15.93,2.82.03,6.31,16.09ZM202.92,270.24l-8.42-.1,1.23-2.94,6.04.07,1.15,2.96Z" fill="#000" stroke-width="0"></path>
    <path d="M205.42,260.16l-.31-3.23,12.96-1.22.31,3.23-12.96,1.23ZM211.38,272.42l-1.51-15.94,3.44-.33,1.51,15.94-3.44.33Z" fill="#000" stroke-width="0"></path>
    <path d="M222.85,254.72l2.8,15.76-3.4.6-2.8-15.76,3.4-.6Z" fill="#000" stroke-width="0"></path>
    <path d="M237.08,251.96c1.42.33,2.66,1.01,3.7,2.01,1.04,1.01,1.78,2.25,2.21,3.73.43,1.48.47,2.92.12,4.33-.35,1.41-1.03,2.63-2.05,3.67-1.02,1.04-2.28,1.78-3.79,2.21-1.51.44-2.97.49-4.39.15-1.42-.34-2.65-1.01-3.69-2.02-1.04-1.01-1.78-2.25-2.21-3.73s-.47-2.92-.12-4.33c.35-1.41,1.03-2.63,2.05-3.67s2.28-1.78,3.79-2.21c1.49-.43,2.95-.48,4.38-.14ZM231.46,256.57c-.57.62-.96,1.34-1.16,2.18-.2.83-.17,1.7.09,2.59.25.88.69,1.62,1.3,2.23.61.61,1.33,1.02,2.14,1.24.82.22,1.66.2,2.52-.05.87-.25,1.59-.68,2.16-1.3.57-.62.96-1.35,1.15-2.19s.16-1.7-.09-2.58c-.26-.89-.69-1.64-1.3-2.24-.61-.6-1.32-1.01-2.14-1.23s-1.66-.2-2.52.05c-.87.25-1.59.68-2.16,1.3Z" fill="#000" stroke-width="0"></path>
    <path d="M244.84,248.12l9.98,5.63-3.96-8.45,3.13-1.47,6.8,14.5-2.62,1.23-10.02-5.61,3.96,8.45-3.13,1.47-6.8-14.5,2.66-1.25Z" fill="#000" stroke-width="0"></path>
    <path d="M276.82,247.75l-3.09,2.14-9.53-6.42,2.64,11.19-3.01,2.08-3.8-16.84,2.32-1.61,14.46,9.46ZM272.23,247.68l-6.92,4.79-.7-3.1,4.97-3.44,2.66,1.75Z" fill="#000" stroke-width="0"></path>
    <path d="M270.51,231.58l9.02,9.03,5.3-5.29,2.3,2.3-7.74,7.73-11.32-11.32,2.44-2.44Z" fill="#000" stroke-width="0"></path>
  </g>
  <g>
    <path d="M131.88,120.2c2.09.05,4.17.06,6.26.05,1.05,0,1.98.17,2.79.54.81.37,1.44.9,1.88,1.59.44.69.66,1.49.66,2.41,0,.93-.22,1.76-.65,2.49-.44.72-1.05,1.29-1.84,1.68-.79.4-1.7.6-2.73.61-.99,0-1.97,0-2.96,0,0,1.64,0,3.28,0,4.92-1.14,0-2.27-.02-3.41-.05v-14.24ZM137.61,127.03c.48,0,.9-.09,1.26-.27.36-.18.65-.43.86-.76.21-.33.32-.71.32-1.13,0-.63-.22-1.13-.65-1.52-.44-.39-1.02-.58-1.75-.57-.78,0-1.56,0-2.35,0,0,1.42,0,2.84,0,4.26.77,0,1.55,0,2.33,0Z" fill="#000" stroke-width="0"></path>
    <path d="M153.74,133.96c-.36-.15-.66-.37-.91-.68-.24-.3-.42-.67-.53-1.09-.21-.77-.42-1.55-.63-2.32-.12-.39-.33-.7-.61-.92-.28-.22-.59-.33-.9-.31-.58.03-1.16.06-1.73.09,0,1.81,0,3.63,0,5.44-1.14.06-2.28.11-3.43.15v-14.24c2.13-.08,4.26-.19,6.38-.32,1.1-.07,2.06.05,2.89.36.82.31,1.45.77,1.9,1.4.44.63.66,1.38.66,2.28,0,.6-.13,1.17-.38,1.7-.25.53-.61,1-1.09,1.4-.48.4-1.03.7-1.67.89v.02c.35.14.63.33.84.57.2.25.35.58.43,1,.16.58.33,1.16.49,1.74.07.22.16.39.28.51.11.12.25.17.42.16.15-.01.3-.07.45-.19.15-.11.31-.27.47-.47.27.52.53,1.04.8,1.55-.35.4-.79.73-1.29.98-.51.25-1.03.4-1.56.44-.48.04-.89-.02-1.25-.17ZM151.08,126.24c.46-.03.87-.14,1.22-.33.35-.19.63-.44.83-.75.2-.31.3-.65.3-1.04,0-.39-.1-.72-.3-.99-.2-.27-.47-.49-.82-.64-.35-.15-.76-.21-1.23-.18-.88.05-1.77.1-2.65.15,0,1.31,0,2.61,0,3.92.88-.04,1.77-.09,2.65-.15Z" fill="#000" stroke-width="0"></path>
    <path d="M162.04,132.68c-1.12-.53-2-1.33-2.62-2.41-.63-1.08-.94-2.38-.94-3.9,0-1.51.31-2.86.93-4.06.62-1.2,1.49-2.17,2.62-2.9,1.13-.73,2.43-1.18,3.9-1.33,1.52-.16,2.84,0,3.96.5,1.12.5,1.98,1.28,2.6,2.34.62,1.07.93,2.36.93,3.88,0,1.51-.31,2.87-.94,4.08-.63,1.22-1.49,2.21-2.6,2.97-1.11.76-2.42,1.23-3.95,1.39-1.47.16-2.76-.03-3.89-.56ZM168.09,129.55c.61-.45,1.08-1.06,1.41-1.81.33-.75.49-1.59.49-2.53,0-.95-.16-1.75-.49-2.42-.33-.67-.8-1.16-1.41-1.48-.61-.32-1.33-.43-2.16-.35-.79.08-1.49.35-2.09.8-.61.45-1.08,1.04-1.42,1.78-.34.74-.51,1.58-.51,2.53,0,.93.17,1.74.51,2.42.34.68.81,1.18,1.42,1.51.6.33,1.3.45,2.09.36.83-.09,1.55-.36,2.16-.82Z" fill="#000" stroke-width="0"></path>
    <path d="M178.09,130.82c-1.01-.49-1.79-1.27-2.36-2.34-.57-1.07-.85-2.36-.85-3.86,0-1.51.3-2.87.89-4.08.59-1.22,1.43-2.21,2.52-2.99,1.09-.78,2.35-1.26,3.77-1.46.97-.13,1.87-.07,2.7.19.84.26,1.55.68,2.15,1.26.6.59,1.02,1.31,1.26,2.17-1.05.38-2.11.77-3.16,1.15-.18-.44-.41-.81-.71-1.11-.3-.3-.64-.52-1.03-.66-.39-.14-.81-.18-1.26-.12-.73.1-1.38.38-1.95.84s-1,1.06-1.31,1.8c-.31.74-.46,1.57-.46,2.49,0,.96.17,1.78.52,2.45.35.67.83,1.17,1.45,1.48.62.31,1.34.41,2.17.29.71-.1,1.34-.33,1.9-.7.56-.37,1-.84,1.33-1.41.33-.57.5-1.2.53-1.92-1.8.26-3.6.51-5.41.75,0-.73,0-1.45,0-2.18,2.91-.39,5.82-.81,8.73-1.23v8.08c-.85.12-1.7.25-2.55.37-.09-.77-.18-1.55-.26-2.32h-.02c-.34.63-.77,1.18-1.28,1.66-.51.48-1.09.89-1.74,1.2-.65.32-1.34.53-2.06.62-1.35.18-2.52.03-3.53-.46Z" fill="#000" stroke-width="0"></path>
    <path d="M200.63,128.2c-.36-.12-.66-.32-.91-.6-.25-.28-.42-.63-.53-1.04-.21-.76-.42-1.51-.63-2.27-.12-.38-.33-.67-.61-.87-.29-.2-.59-.27-.9-.23-.58.09-1.16.17-1.73.26,0,1.81,0,3.63,0,5.44-1.14.17-2.28.34-3.43.51v-14.24c2.13-.31,4.26-.63,6.38-.94,1.1-.16,2.06-.12,2.89.12.82.24,1.45.66,1.9,1.26.44.59.66,1.34.66,2.23,0,.6-.13,1.18-.38,1.73-.25.55-.62,1.05-1.09,1.48-.48.44-1.03.78-1.67,1.02v.02c.35.11.63.28.84.51.2.23.35.55.43.97.16.57.33,1.14.49,1.71.07.22.16.38.28.49.12.11.26.15.42.13.15-.02.3-.09.45-.22.15-.12.31-.29.47-.5.27.5.53,1,.8,1.5-.35.43-.79.78-1.3,1.07-.51.29-1.03.47-1.56.55-.48.07-.89.05-1.26-.07ZM197.97,120.7c.46-.07.87-.21,1.22-.43.35-.22.63-.49.83-.81.2-.32.3-.68.3-1.06,0-.39-.1-.71-.3-.97-.2-.26-.47-.45-.82-.57-.35-.12-.76-.15-1.23-.08-.88.13-1.77.26-2.65.39,0,1.31,0,2.61,0,3.92.88-.13,1.77-.26,2.65-.39Z" fill="#000" stroke-width="0"></path>
    <path d="M210.34,112.43c1.4-.2,2.8-.4,4.2-.6,1.58,4.52,3.16,9.05,4.73,13.59-1.17.16-2.34.32-3.51.48-.28-.9-.56-1.8-.84-2.7-1.67.23-3.33.47-5,.72-.29.98-.58,1.97-.88,2.95-1.16.17-2.33.34-3.49.51,1.59-4.98,3.18-9.96,4.77-14.94ZM214.36,120.83c-.63-1.99-1.27-3.98-1.9-5.97h-.04c-.64,2.18-1.28,4.35-1.92,6.52,1.29-.19,2.57-.37,3.86-.55Z" fill="#000" stroke-width="0"></path>
    <path d="M220.7,110.98c1.54-.2,3.07-.4,4.61-.6,1.24,3.33,2.48,6.65,3.71,9.99,0,0,.01,0,.02,0,1.24-3.63,2.49-7.25,3.73-10.86,1.52-.17,3.05-.32,4.57-.47v14.24c-1.05.1-2.11.21-3.16.32v-10.06h-.04c-1.23,3.49-2.46,6.98-3.69,10.47-.95.11-1.9.22-2.86.34-1.23-3.2-2.46-6.4-3.69-9.6-.01,0-.03,0-.04,0v10.06c-1.05.13-2.11.27-3.16.41v-14.24Z" fill="#000" stroke-width="0"></path>
    <path d="M239.97,108.79c1.54-.14,3.07-.27,4.61-.38,1.24,3.39,2.48,6.78,3.71,10.18,0,0,.01,0,.02,0,1.24-3.56,2.49-7.11,3.73-10.65,1.52-.07,3.05-.13,4.57-.18,0,4.75,0,9.49,0,14.24-1.05.03-2.11.07-3.16.12v-10.06s-.03,0-.04,0c-1.23,3.41-2.46,6.82-3.69,10.25-.95.05-1.9.11-2.86.18-1.23-3.27-2.46-6.53-3.69-9.79-.01,0-.03,0-.04,0v10.06c-1.05.08-2.11.17-3.16.27v-14.24Z" fill="#000" stroke-width="0"></path>
    <path d="M259.24,107.7c3.09-.06,6.19-.05,9.28.02,0,.9,0,1.8,0,2.7-1.99-.05-3.98-.07-5.98-.06v3.06c1.72,0,3.44,0,5.16.04v2.38c-1.72-.04-3.44-.05-5.16-.04v3.38c2.06,0,4.12.01,6.18.07v2.72c-3.16-.08-6.32-.09-9.49-.03v-14.24Z" fill="#000" stroke-width="0"></path>
    <path d="M131.15,156.21c-.89-.41-1.6-1-2.13-1.76-.53-.76-.82-1.64-.88-2.63,1.05-.14,2.11-.28,3.16-.43.03.58.17,1.08.44,1.52.27.44.63.78,1.1,1.01.47.24.98.36,1.52.36.48,0,.9-.07,1.25-.22.36-.15.64-.36.84-.63.2-.27.3-.57.3-.9,0-.44-.17-.8-.5-1.07-.33-.27-.87-.49-1.62-.66-.63-.17-1.25-.35-1.88-.53-1.43-.36-2.47-.89-3.13-1.57-.66-.68-.99-1.58-.99-2.69,0-.87.21-1.64.64-2.31.43-.67,1.05-1.18,1.86-1.53.81-.35,1.76-.52,2.85-.51.94.01,1.8.19,2.57.54.78.35,1.4.83,1.88,1.45.48.62.75,1.35.82,2.17-1.03.23-2.05.44-3.08.66-.04-.44-.16-.83-.35-1.17-.19-.34-.46-.61-.79-.8-.34-.2-.71-.3-1.12-.3-.38,0-.72.06-1.03.2-.31.14-.54.33-.69.57-.16.24-.24.52-.24.84,0,.44.15.79.46,1.06.31.27.81.48,1.52.63.62.16,1.24.32,1.86.48,1.48.35,2.56.85,3.24,1.51.68.66,1.03,1.55,1.04,2.67,0,.93-.24,1.75-.71,2.46-.48.71-1.16,1.26-2.04,1.65-.88.39-1.9.58-3.06.57-1.17-.01-2.2-.23-3.09-.64Z" fill="#000" stroke-width="0"></path>
    <path d="M144.77,155.76c-1.12-.59-2-1.45-2.62-2.57-.63-1.12-.94-2.44-.94-3.96,0-1.51.31-2.84.93-4,.62-1.16,1.49-2.07,2.62-2.74,1.13-.67,2.43-1.04,3.9-1.11,1.52-.08,2.84.15,3.96.71,1.12.55,1.98,1.37,2.6,2.47.62,1.09.93,2.4.93,3.92,0,1.51-.31,2.85-.94,4.04-.63,1.19-1.49,2.14-2.6,2.84-1.11.71-2.42,1.1-3.95,1.18-1.47.08-2.76-.19-3.89-.78ZM150.82,152.96c.61-.42,1.08-1,1.41-1.74.33-.73.49-1.57.49-2.5,0-.95-.16-1.76-.49-2.45-.33-.69-.8-1.2-1.41-1.55-.61-.35-1.33-.5-2.16-.46-.79.04-1.49.27-2.09.68-.61.41-1.08.98-1.42,1.7-.34.72-.51,1.55-.51,2.5,0,.93.17,1.75.51,2.45.34.7.81,1.23,1.42,1.59.6.36,1.3.52,2.09.48.83-.04,1.55-.28,2.16-.7Z" fill="#000" stroke-width="0"></path>
    <path d="M158.18,141.19c2.99-.25,5.98-.55,8.98-.87v2.88c-1.85.2-3.7.39-5.55.57v3.38c1.45-.14,2.9-.28,4.34-.44v2.56c-1.45.15-2.9.3-4.34.44v5.42c-1.14.11-2.28.21-3.43.31,0-4.75,0-9.49,0-14.24Z" fill="#000" stroke-width="0"></path>
    <path d="M172.22,142.62c-1.3.16-2.6.31-3.9.45v-2.88c3.75-.42,7.49-.89,11.24-1.39v2.88c-1.3.17-2.6.34-3.9.51v11.36c-1.15.15-2.3.29-3.45.43v-11.36Z" fill="#000" stroke-width="0"></path>
    <path d="M181.06,138.6c1.14-.15,2.28-.31,3.43-.47v11.36c1.78-.25,3.56-.5,5.34-.76v2.88c-2.92.42-5.85.84-8.77,1.24v-14.24Z" fill="#000" stroke-width="0"></path>
    <path d="M195.65,136.51c1.4-.21,2.8-.42,4.2-.62,1.58,4.51,3.16,9.02,4.73,13.54-1.17.17-2.34.35-3.51.52-.28-.9-.56-1.8-.84-2.7-1.67.25-3.33.5-5,.74-.29.98-.58,1.97-.88,2.95-1.16.17-2.33.34-3.49.51,1.59-4.98,3.18-9.96,4.77-14.94ZM199.67,144.89c-.63-1.99-1.27-3.97-1.9-5.96-.01,0-.03,0-.04,0-.64,2.18-1.28,4.35-1.92,6.53,1.29-.19,2.57-.38,3.86-.57Z" fill="#000" stroke-width="0"></path>
    <path d="M206.01,134.97c1.39-.21,2.79-.41,4.18-.61,1.71,3.15,3.43,6.31,5.14,9.47.01,0,.03,0,.04,0v-10.2c1.07-.15,2.13-.3,3.2-.44v14.24c-1.38.19-2.76.38-4.14.57-1.72-3.15-3.44-6.3-5.16-9.44-.01,0-.03,0-.04,0v10.18c-1.07.16-2.15.31-3.22.47v-14.24Z" fill="#000" stroke-width="0"></path>
    <path d="M221.21,132.82c1.86-.25,3.73-.48,5.59-.71,2.34-.29,4.14.12,5.41,1.21,1.26,1.09,1.9,2.78,1.9,5.06,0,1.53-.28,2.86-.85,3.98-.56,1.12-1.4,2.02-2.49,2.7-1.09.68-2.42,1.11-3.99,1.3-1.86.23-3.71.46-5.57.71v-14.24ZM226.76,143.64c.84-.1,1.56-.36,2.14-.77.59-.41,1.03-.96,1.35-1.66.31-.7.46-1.52.45-2.46,0-1.4-.34-2.44-1.03-3.13-.69-.69-1.66-.96-2.91-.8-.74.09-1.48.18-2.22.28,0,2.94,0,5.88,0,8.82.74-.09,1.48-.19,2.22-.28Z" fill="#000" stroke-width="0"></path>
    <path d="M236.17,131.06c1.14-.11,2.28-.22,3.43-.33v14.24c-1.14.1-2.28.21-3.43.33,0-4.75,0-9.49,0-14.24Z" fill="#000" stroke-width="0"></path>
    <path d="M242.23,130.5c1.39-.12,2.79-.22,4.18-.32,1.71,3.28,3.43,6.58,5.14,9.89.01,0,.03,0,.04,0v-10.2c1.07-.05,2.14-.1,3.2-.14v14.24c-1.38.05-2.76.12-4.14.19-1.72-3.3-3.44-6.58-5.16-9.85-.01,0-.03,0-.04,0v10.18c-1.07.08-2.15.16-3.22.25v-14.24Z" fill="#000" stroke-width="0"></path>
    <path d="M260.07,143.32c-1.01-.6-1.79-1.47-2.36-2.59-.56-1.13-.85-2.44-.85-3.95,0-1.51.3-2.84.89-3.99.59-1.16,1.43-2.06,2.52-2.71,1.09-.65,2.35-.98,3.77-.97.97,0,1.87.2,2.7.59.84.39,1.55.93,2.15,1.62.6.69,1.02,1.49,1.26,2.39-1.05.2-2.11.41-3.16.62-.18-.47-.41-.88-.71-1.22-.3-.34-.64-.61-1.03-.81-.39-.2-.81-.3-1.26-.3-.73,0-1.38.19-1.95.58-.56.39-1,.94-1.31,1.64-.3.7-.46,1.52-.46,2.44,0,.96.17,1.8.52,2.51.35.72.83,1.27,1.45,1.66.62.39,1.34.59,2.17.59.71,0,1.34-.14,1.9-.42.56-.29,1-.68,1.33-1.2.33-.51.5-1.12.53-1.83-1.8-.04-3.6-.06-5.41-.05v-2.18c2.91,0,5.82.04,8.73.16v8.08c-.85-.03-1.7-.06-2.55-.09-.09-.79-.18-1.58-.26-2.37,0,0-.01,0-.02,0-.34.57-.77,1.05-1.28,1.45-.51.4-1.09.71-1.74.93-.65.22-1.34.33-2.06.33-1.34,0-2.52-.3-3.53-.9Z" fill="#000" stroke-width="0"></path>
  </g>
  <path d="M310.99,198.54l-11.08-36.44c1.59.36,3.19.73,4.78,1.15,1.43.38,2.84.07,3.85-.82,1.01-.89,1.48-2.24,1.29-3.71-1.25-9.28-2.49-18.55-3.74-27.79,1.25-8.61,2.49-17.21,3.74-25.78.37-2.54-1.5-5.25-4.08-5.93-8.75-2.28-17.51-3.67-26.28-4.4l-.72-2.39c-1.98-6.09-7.61-10.18-14.02-10.18h-129.44c-6.41,0-12.04,4.09-14.03,10.23l-4.03,13.27c-7.32-.77-14.63-2.03-21.9-3.93-1.43-.37-2.84-.07-3.86.83-1.01.9-1.48,2.25-1.28,3.71,1.25,9.28,2.49,18.55,3.74,27.79-1.25,8.61-2.49,17.21-3.74,25.78-.37,2.54,1.5,5.26,4.08,5.93,13.15,3.43,26.36,4.84,39.54,5.01-4.08,6.88-6.37,14.49-6.37,22.51,0,30.36,32.56,55.07,72.57,55.07s72.57-24.7,72.57-55.07c0-12.81-5.8-24.62-15.52-33.98-.35-.34-.13-.94.36-.95,12.37-.33,24.75.31,37.06,2.56.21.04.37.19.43.39l11.71,38.54c6.01,18.49-.52,38.6-16.25,50.02l-84.4,61.32c-3.57,2.6-8.38,2.6-11.95,0l-84.4-61.32c-15.73-11.43-22.26-31.53-16.24-50.07l6.65-21.88-4.38-1.33-6.64,21.84c-6.62,20.38.58,42.54,17.92,55.14l84.4,61.32c2.59,1.88,5.63,2.82,8.66,2.82,3.04,0,6.07-.94,8.66-2.82l84.4-61.32c17.34-12.6,24.54-34.76,17.93-55.1ZM125.61,93.83c1.37-4.2,5.25-7.02,9.67-7.02h129.44c4.42,0,8.3,2.82,9.65,6.98l.21.68c-25.18-1.41-50.33,2.33-74.89,5.99-25.34,3.77-51.31,7.64-77.13,5.75-.35-.03-.6-.38-.49-.72l3.54-11.66ZM157.77,169.95c5.83-.48,11.64-1.11,17.43-1.83.38-.05.69.29.6.67-.72,2.99-1.32,6.13-1.77,9.43-.04.32-.36.54-.67.47-6.07-1.36-11.73-3.18-16.82-5.39-.28-.12-.41-.46-.29-.74.34-.78.7-1.54,1.08-2.3.09-.17.26-.29.45-.31ZM132,193.36c0-7.98,2.52-15.54,6.98-22.25.1-.15.27-.25.46-.25.98-.01,1.96-.03,2.95-.06.12,0,.23.03.32.1,2.2,1.55,4.59,2.99,7.15,4.33.24.12.35.4.27.65-1.77,5.5-2.74,11.38-2.74,17.49,0,7.58,1.47,14.82,4.14,21.4-3.16,1.54-6.07,3.24-8.72,5.09-.24.16-.56.12-.74-.1-6.37-7.68-10.06-16.72-10.06-26.38ZM146.07,223.14c2.11-1.43,4.4-2.75,6.86-3.98.27-.14.6-.03.74.24,3.4,6.6,8.04,12.39,13.6,17.03.48.4,0,1.18-.57.93-8.06-3.38-15.1-7.93-20.69-13.36-.25-.25-.22-.67.07-.87ZM158.14,216.78c4.84-1.98,10.17-3.59,15.82-4.82.31-.07.61.14.66.45,2.09,11.89,6.08,21.76,11.28,28.14.35.43-.08,1.05-.61.87-11.77-3.99-21.58-12.63-27.43-23.86-.15-.29-.02-.66.28-.78ZM197.01,243.38c-8.06-2.55-14.9-15.18-17.86-31.85-.05-.31.15-.6.46-.66,5.63-.93,11.52-1.46,17.53-1.59.31,0,.57.25.57.56v33c0,.37-.35.65-.7.54ZM178.32,205.88c-.48-4.02-.73-8.21-.73-12.52h-4.57c0,4.66.27,9.17.78,13.46.03.28-.15.54-.43.6-6.12,1.31-11.9,3.07-17.16,5.22-.29.12-.61-.02-.72-.31-2.27-5.86-3.52-12.27-3.52-18.97,0-5.35.81-10.5,2.28-15.34.1-.32.44-.47.75-.34,10.55,4.55,23.34,7.43,37.19,8.23l.27-4.57c-4.61-.27-9.12-.8-13.47-1.55-.3-.05-.5-.33-.46-.63.54-4.06,1.32-7.88,2.27-11.42.06-.22.24-.37.46-.4,5.3-.72,10.58-1.49,15.84-2.27.33-.05.63.21.63.55v38.55c0,.3-.24.54-.54.55-6.24.13-12.36.68-18.22,1.65-.31.05-.6-.16-.64-.48ZM235.6,159.89c.19-.02.37.06.49.2,7.44,8.89,11.95,20.53,11.95,33.27,0,6.71-1.25,13.11-3.52,18.97-.11.29-.44.43-.72.31-5.25-2.16-11.02-3.92-17.16-5.24-.28-.06-.46-.31-.43-.6.51-4.29.78-8.79.78-13.45,0-3.24-.14-6.4-.39-9.47-.02-.27.16-.52.43-.57,4.68-1.02,9.17-2.3,13.4-3.84l-1.57-4.3c-3.86,1.41-7.95,2.58-12.2,3.53-.32.07-.63-.15-.67-.47-.79-5.85-2.04-11.28-3.65-16.13-.11-.33.11-.67.45-.72,4.26-.55,8.53-1.06,12.81-1.5ZM217.59,162.53c1.72,4.93,3.05,10.57,3.87,16.65.04.3-.16.58-.46.63-5.84.99-11.93,1.56-18.15,1.7-.31,0-.57-.25-.57-.56v-16.18c0-.27.2-.51.47-.55,4.72-.7,9.47-1.4,14.23-2.06.26-.04.52.11.61.37ZM202.29,242.84v-56.22c0-.3.24-.54.54-.55,6.37-.13,12.61-.7,18.61-1.7.32-.05.62.17.64.5.22,2.77.34,5.6.34,8.49,0,4.3-.26,8.5-.73,12.52-.04.31-.33.53-.64.48-4.23-.69-8.6-1.19-13.06-1.46l-.27,4.57c4.34.26,8.58.74,12.68,1.41.31.05.51.35.46.65-2.96,16.67-9.8,29.3-17.86,31.85-.35.11-.7-.17-.7-.54ZM226.05,211.94c5.67,1.23,10.98,2.86,15.82,4.84.3.12.43.49.28.78-5.86,11.23-15.66,19.87-27.43,23.86-.53.18-.96-.43-.61-.87,5.2-6.39,9.2-16.26,11.28-28.16.05-.31.36-.52.66-.45ZM232.74,236.42c5.56-4.64,10.2-10.44,13.6-17.04.14-.27.47-.38.74-.24,2.45,1.23,4.75,2.56,6.86,3.99.29.2.33.62.07.87-5.6,5.43-12.64,9.99-20.7,13.36-.58.24-1.06-.53-.57-.93ZM259.21,169.49c.25-.19.6-.14.78.11,5.11,7.08,8.01,15.17,8.01,23.75,0,9.66-3.69,18.69-10.05,26.37-.18.22-.51.26-.74.1-2.51-1.76-5.29-3.38-8.27-4.86-.25-.13-.37-.42-.27-.69,2.54-6.45,3.95-13.52,3.95-20.92,0-6.11-.97-11.99-2.74-17.49-.08-.25.03-.53.27-.65,3.35-1.75,6.38-3.66,9.06-5.72ZM256.28,165.97c-2.27,1.73-4.82,3.36-7.64,4.86-.28.15-.64.03-.77-.27-1.62-3.71-3.63-7.2-5.97-10.42-.25-.35-.03-.84.4-.88,2.31-.19,4.62-.36,6.93-.49.14,0,.28.04.39.12,2.45,1.95,4.71,4.04,6.73,6.25.22.24.19.62-.07.82ZM199.69,160.44c-34.28,5.1-69.72,10.38-104.38,1.34-.59-.15-1.05-.91-.99-1.28,1.26-8.67,2.52-17.36,3.78-26.07l.04-.29-.04-.29c-1.25-9.31-2.51-18.64-3.76-27.99,35.46,9.23,71.31,3.89,105.98-1.27,34.28-5.1,69.72-10.38,104.38-1.34.59.15,1.05.91,1,1.28-1.26,8.67-2.52,17.36-3.78,26.07l-.04.29.04.29c1.22,9.04,2.44,18.1,3.66,27.18.05.39-.3.7-.68.6-35.21-8.94-70.78-3.65-105.19,1.48Z" fill="#000" stroke-width="0"></path>
</svg>
