<?xml version="1.0" encoding="UTF-8"?>
<svg xmlns="http://www.w3.org/2000/svg" width="400" height="400" viewBox="0 0 400 400" fill="none">
  <path d="M360.97,138.67c-25.18-12.39-51.74-21.88-78.93-28.19-26.88-6.24-54.48-9.4-82.04-9.4s-55.16,3.16-82.04,9.4c-27.19,6.31-53.75,15.79-78.93,28.19-11.65,5.73-19.18,17.95-19.18,31.13v94.57c0,19.05,15.23,34.55,33.94,34.55h292.42c18.72,0,33.94-15.5,33.94-34.55v-94.57c0-13.18-7.53-25.4-19.18-31.13Z" fill="#fe3a3a" stroke-width="0"></path>
  <g>
    <path d="M67.65,252.79c-.81-.39-1.74-.58-2.78-.58h-6.26v14.24h3.41v-4.92h2.96c1.03,0,1.94-.19,2.73-.57.79-.38,1.4-.93,1.84-1.64s.65-1.54.65-2.47-.22-1.73-.66-2.43c-.44-.7-1.07-1.24-1.88-1.63ZM66.45,257.98c-.21.33-.5.58-.86.75-.36.17-.78.26-1.25.26h-2.33v-4.26h2.35c.73,0,1.32.2,1.75.59.44.39.65.9.65,1.53,0,.43-.11.8-.32,1.13Z" fill="#000" stroke-width="0"></path>
    <path d="M83.31,264.42c-.15.1-.3.15-.45.15-.16,0-.3-.06-.42-.19-.12-.13-.21-.3-.28-.53l-.49-1.78c-.08-.43-.22-.77-.43-1.03-.2-.26-.48-.47-.84-.63v-.02c.64-.15,1.2-.4,1.67-.77.48-.37.84-.81,1.09-1.32.25-.51.38-1.07.38-1.67,0-.89-.22-1.67-.66-2.33-.44-.66-1.07-1.17-1.9-1.54-.82-.37-1.79-.55-2.89-.55h-6.38v14.24h3.43v-5.44h1.73c.31,0,.61.12.9.36.29.24.49.56.61.96l.63,2.36c.11.43.29.8.53,1.12.25.32.55.57.91.74.36.17.78.26,1.25.26.53,0,1.05-.11,1.56-.32.51-.21.94-.51,1.3-.88l-.8-1.62c-.16.19-.32.33-.47.43ZM79.85,257.71c-.2.29-.47.52-.83.69-.35.17-.76.25-1.22.25h-2.65v-3.92h2.65c.48,0,.89.09,1.23.26s.62.4.82.69c.2.29.3.62.3,1.01s-.1.73-.3,1.02Z" fill="#000" stroke-width="0"></path>
    <path d="M96.61,252.69c-1.12-.63-2.43-.94-3.96-.94s-2.77.31-3.9.94c-1.13.63-2,1.51-2.62,2.66-.62,1.15-.93,2.47-.93,3.98s.31,2.85.94,3.98c.62,1.13,1.5,2.02,2.62,2.65,1.12.63,2.42.95,3.89.95s2.84-.32,3.95-.95c1.11-.63,1.98-1.52,2.6-2.66s.94-2.46.94-3.97-.31-2.85-.93-3.99c-.62-1.14-1.49-2.02-2.6-2.65ZM96.22,261.8c-.33.71-.8,1.26-1.41,1.65s-1.33.58-2.16.58-1.49-.19-2.09-.58-1.08-.94-1.42-1.65c-.34-.71-.51-1.54-.51-2.47s.17-1.77.51-2.48c.34-.71.81-1.25,1.42-1.64.6-.39,1.3-.58,2.09-.58.83,0,1.55.19,2.16.58.61.39,1.08.93,1.41,1.64.33.71.49,1.53.49,2.48s-.16,1.76-.49,2.47Z" fill="#000" stroke-width="0"></path>
    <path d="M107.53,260.55h5.41c-.03.71-.2,1.32-.53,1.84-.33.52-.77.93-1.33,1.22-.56.29-1.19.44-1.9.44-.83,0-1.55-.2-2.17-.59-.62-.39-1.1-.95-1.45-1.67-.35-.72-.52-1.56-.52-2.52s.15-1.73.46-2.43c.31-.7.74-1.24,1.31-1.63.56-.39,1.21-.58,1.95-.58.45,0,.87.1,1.25.29s.73.46,1.03.8c.3.34.54.74.71,1.21l3.16-.7c-.25-.89-.67-1.68-1.26-2.35-.6-.67-1.32-1.2-2.15-1.57-.84-.37-1.74-.56-2.7-.56-1.43,0-2.69.32-3.77.95-1.09.63-1.93,1.52-2.52,2.66-.59,1.14-.89,2.46-.89,3.97s.28,2.83.85,3.97c.56,1.14,1.35,2.02,2.36,2.64,1.01.62,2.18.93,3.53.93.72,0,1.41-.11,2.06-.34s1.23-.55,1.74-.96c.51-.41.93-.91,1.27-1.48h.02l.27,2.36h2.55v-8.08h-8.73v2.18Z" fill="#000" stroke-width="0"></path>
    <path d="M130.2,264.42c-.15.1-.3.15-.45.15-.16,0-.3-.06-.42-.19-.12-.13-.21-.3-.28-.53l-.49-1.78c-.08-.43-.22-.77-.43-1.03-.2-.26-.48-.47-.84-.63v-.02c.64-.15,1.2-.4,1.67-.77.48-.37.84-.81,1.09-1.32.25-.51.38-1.07.38-1.67,0-.89-.22-1.67-.66-2.33-.44-.66-1.07-1.17-1.9-1.54-.82-.37-1.79-.55-2.89-.55h-6.38v14.24h3.43v-5.44h1.73c.31,0,.61.12.9.36.29.24.49.56.61.96l.63,2.36c.11.43.29.8.53,1.12.25.32.55.57.91.74.36.17.78.26,1.25.26.53,0,1.05-.11,1.56-.32.51-.21.94-.51,1.3-.88l-.8-1.62c-.16.19-.32.33-.47.43ZM126.74,257.71c-.2.29-.47.52-.83.69-.35.17-.76.25-1.22.25h-2.65v-3.92h2.65c.48,0,.89.09,1.23.26s.62.4.82.69c.2.29.3.62.3,1.01s-.1.73-.3,1.02Z" fill="#000" stroke-width="0"></path>
    <path d="M137.07,252.21l-4.77,14.24h3.49l.88-2.82h5l.84,2.82h3.51l-4.73-14.24h-4.2ZM137.23,261.19l1.92-6.24h.04l1.9,6.24h-3.86Z" fill="#000" stroke-width="0"></path>
    <polygon points="155.76 262.65 155.74 262.65 152.03 252.21 147.42 252.21 147.42 266.45 150.58 266.45 150.58 256.39 150.62 256.39 154.32 266.45 157.17 266.45 160.86 256.39 160.9 256.39 160.9 266.45 164.07 266.45 164.07 252.21 159.5 252.21 155.76 262.65" fill="#000" stroke-width="0"></polygon>
    <polygon points="175.04 262.65 175.02 262.65 171.3 252.21 166.69 252.21 166.69 266.45 169.86 266.45 169.86 256.39 169.9 256.39 173.59 266.45 176.44 266.45 180.14 256.39 180.18 256.39 180.18 266.45 183.34 266.45 183.34 252.21 178.77 252.21 175.04 262.65" fill="#000" stroke-width="0"></polygon>
    <polygon points="189.27 260.35 194.43 260.35 194.43 257.97 189.27 257.97 189.27 254.91 195.25 254.91 195.25 252.21 185.97 252.21 185.97 266.45 195.45 266.45 195.45 263.73 189.27 263.73 189.27 260.35" fill="#000" stroke-width="0"></polygon>
    <polygon points="204.77 260.35 209.94 260.35 209.94 257.97 204.77 257.97 204.77 254.91 210.75 254.91 210.75 252.21 201.47 252.21 201.47 266.45 210.96 266.45 210.96 263.73 204.77 263.73 204.77 260.35" fill="#000" stroke-width="0"></polygon>
    <polygon points="225.84 252.21 221.86 252.21 218.93 256.89 216.11 252.21 212.22 252.21 216.7 259.01 212.07 266.45 215.99 266.45 218.93 261.43 221.97 266.45 225.97 266.45 221.21 258.97 225.84 252.21" fill="#000" stroke-width="0"></polygon>
    <path d="M236.42,252.79c-.81-.39-1.74-.58-2.78-.58h-6.26v14.24h3.41v-4.92h2.96c1.03,0,1.94-.19,2.73-.57.79-.38,1.4-.93,1.84-1.64s.65-1.54.65-2.47-.22-1.73-.66-2.43c-.44-.7-1.07-1.24-1.88-1.63ZM235.22,257.98c-.21.33-.5.58-.86.75-.36.17-.78.26-1.25.26h-2.33v-4.26h2.35c.73,0,1.32.2,1.75.59.44.39.65.9.65,1.53,0,.43-.11.8-.32,1.13Z" fill="#000" stroke-width="0"></path>
    <polygon points="243.92 252.21 240.49 252.21 240.49 266.45 249.26 266.45 249.26 263.57 243.92 263.57 243.92 252.21" fill="#000" stroke-width="0"></polygon>
    <path d="M261.49,252.69c-1.12-.63-2.43-.94-3.96-.94s-2.77.31-3.9.94c-1.13.63-2,1.51-2.62,2.66-.62,1.15-.93,2.47-.93,3.98s.31,2.85.94,3.98c.62,1.13,1.5,2.02,2.62,2.65,1.12.63,2.42.95,3.89.95s2.84-.32,3.95-.95c1.11-.63,1.98-1.52,2.6-2.66s.94-2.46.94-3.97-.31-2.85-.93-3.99c-.62-1.14-1.49-2.02-2.6-2.65ZM261.1,261.8c-.33.71-.8,1.26-1.41,1.65s-1.33.58-2.16.58-1.49-.19-2.09-.58-1.08-.94-1.42-1.65c-.34-.71-.51-1.54-.51-2.47s.17-1.77.51-2.48c.34-.71.81-1.25,1.42-1.64.6-.39,1.3-.58,2.09-.58.83,0,1.55.19,2.16.58.61.39,1.08.93,1.41,1.64.33.71.49,1.53.49,2.48s-.16,1.76-.49,2.47Z" fill="#000" stroke-width="0"></path>
    <path d="M278.64,264.42c-.15.1-.3.15-.45.15-.16,0-.3-.06-.42-.19-.12-.13-.21-.3-.28-.53l-.49-1.78c-.08-.43-.22-.77-.43-1.03-.2-.26-.48-.47-.84-.63v-.02c.64-.15,1.2-.4,1.67-.77.48-.37.84-.81,1.09-1.32.25-.51.38-1.07.38-1.67,0-.89-.22-1.67-.66-2.33-.44-.66-1.07-1.17-1.9-1.54-.82-.37-1.79-.55-2.89-.55h-6.38v14.24h3.43v-5.44h1.73c.31,0,.61.12.9.36.29.24.49.56.61.96l.63,2.36c.11.43.29.8.53,1.12.25.32.55.57.91.74.36.17.78.26,1.25.26.53,0,1.05-.11,1.56-.32.51-.21.94-.51,1.3-.88l-.8-1.62c-.16.19-.32.33-.47.43ZM275.18,257.71c-.2.29-.47.52-.83.69-.35.17-.76.25-1.22.25h-2.65v-3.92h2.65c.48,0,.89.09,1.23.26s.62.4.82.69c.2.29.3.62.3,1.01s-.1.73-.3,1.02Z" fill="#000" stroke-width="0"></path>
    <path d="M285.51,252.21l-4.77,14.24h3.49l.88-2.82h5l.84,2.82h3.51l-4.73-14.24h-4.2ZM285.67,261.19l1.92-6.24h.04l1.9,6.24h-3.86Z" fill="#000" stroke-width="0"></path>
    <polygon points="293.63 255.09 297.52 255.09 297.52 266.45 300.97 266.45 300.97 255.09 304.87 255.09 304.87 252.21 293.63 252.21 293.63 255.09" fill="#000" stroke-width="0"></polygon>
    <rect x="306.36" y="252.21" width="3.43" height="14.24" fill="#000" stroke-width="0"></rect>
    <path d="M323.25,252.69c-1.12-.63-2.43-.94-3.96-.94s-2.77.31-3.9.94c-1.13.63-2,1.51-2.62,2.66-.62,1.15-.93,2.47-.93,3.98s.31,2.85.94,3.98c.62,1.13,1.5,2.02,2.62,2.65,1.12.63,2.42.95,3.89.95s2.84-.32,3.95-.95c1.11-.63,1.98-1.52,2.6-2.66s.94-2.46.94-3.97-.31-2.85-.93-3.99c-.62-1.14-1.49-2.02-2.6-2.65ZM322.87,261.8c-.33.71-.8,1.26-1.41,1.65s-1.33.58-2.16.58-1.49-.19-2.09-.58-1.08-.94-1.42-1.65c-.34-.71-.51-1.54-.51-2.47s.17-1.77.51-2.48c.34-.71.81-1.25,1.42-1.64.6-.39,1.3-.58,2.09-.58.83,0,1.55.19,2.16.58.61.39,1.08.93,1.41,1.64.33.71.49,1.53.49,2.48s-.16,1.76-.49,2.47Z" fill="#000" stroke-width="0"></path>
    <polygon points="338.18 262.41 338.14 262.41 333 252.21 328.81 252.21 328.81 266.45 332.04 266.45 332.04 256.27 332.08 256.27 337.24 266.45 341.38 266.45 341.38 252.21 338.18 252.21 338.18 262.41" fill="#000" stroke-width="0"></polygon>
    <rect x="84.89" y="170.55" width="4.57" height="41.37" transform="translate(-122.96 195.03) rotate(-66.53)" fill="#000" stroke-width="0"></rect>
    <rect x="104.45" y="144.26" width="4.57" height="21.21" transform="translate(-79.49 128.51) rotate(-47.37)" fill="#000" stroke-width="0"></rect>
    <rect x="124.7" y="168.56" width="4.57" height="9.88" transform="translate(-86.67 149.42) rotate(-47.37)" fill="#000" stroke-width="0"></rect>
    <rect x="184.31" y="173.9" width="52.91" height="4.57" transform="translate(2.29 355.08) rotate(-80.53)" fill="#000" stroke-width="0"></rect>
    <rect x="288.54" y="190.37" width="42.07" height="4.57" transform="translate(-51.31 140.59) rotate(-23.68)" fill="#000" stroke-width="0"></rect>
    <path d="M358.35,154.88c-49-24.94-103.76-38.13-158.35-38.13s-109.35,13.18-158.35,38.13c-3.72,1.9-6.13,5.91-6.13,10.23v99.25c0,10.41,8.2,18.87,18.27,18.87h292.42c10.07,0,18.27-8.47,18.27-18.87v-99.25c0-4.32-2.41-8.34-6.13-10.23ZM217.14,124.1l-2.07,12.38,4.51.75,2.22-13.3c.18-1.06,1.13-1.81,2.2-1.73,10.82.77,21.61,2.06,32.33,3.86,1.4.23,2.15,1.79,1.48,3.04l-26.21,48.44,4.02,2.18,27.57-50.95c.43-.8,1.34-1.23,2.23-1.05,31.47,6.14,62.16,16.65,90.85,31.26,2.21,1.12,3.63,3.54,3.63,6.15v1.81c0,.83-.49,1.58-1.26,1.91l-18.59,7.96,1.8,4.21,15.16-6.49c1.37-.59,2.89.42,2.89,1.91v57.03c0,1.34-1.26,2.32-2.57,2.02-1.67-.39-3.03-.91-4.42-1.45-3.07-1.18-6.25-2.41-12.52-2.41s-9.45,1.22-12.52,2.41c-2.8,1.08-5.45,2.1-10.88,2.1s-8.07-1.02-10.88-2.1c-3.07-1.18-6.25-2.41-12.52-2.41s-9.45,1.22-12.52,2.41c-2.8,1.08-5.45,2.1-10.87,2.1s-8.07-1.02-10.88-2.1c-3.07-1.18-6.25-2.41-12.52-2.41s-9.45,1.22-12.52,2.41c-2.17.84-4.24,1.64-7.58,1.96-1.16.11-2.18-.75-2.28-1.91,0-.01,0-.03,0-.04-.08-.88.42-1.7,1.23-2.05l52.23-22.91-1.84-4.19-50.94,22.35c-1.06.46-2.27-.03-2.74-1.09-.09-.21-.19-.42-.29-.62-.4-.82-.21-1.8.46-2.42l24.53-22.58h0s9.13-8.4,9.13-8.4l.48-.44,40.09-36.9-3.1-3.37-33.82,31.13h0s-6.74,6.21-6.74,6.21l-19.59,18.03h0l-13.25,12.2c-.83.76-2.1.71-2.89-.08-.26-.26-.52-.51-.78-.75-.69-.64-.86-1.67-.41-2.5l9.86-18.22-4.02-2.18-9.51,17.57c-.52.95-1.68,1.34-2.67.9-3.02-1.33-6.35-2.07-9.85-2.07-.24,0-.48,0-.73.01-1.03.03-1.93-.7-2.1-1.72l-14.32-85.81c-.2-1.23.71-2.36,1.95-2.42,5.06-.23,10.13-.35,15.19-.35s10.13.12,15.19.35c1.24.06,2.15,1.19,1.95,2.42ZM200,216.2c10.93,0,19.83,8.84,19.94,19.75-3.23-.33-5.27-1.12-7.4-1.94-3.07-1.18-6.25-2.41-12.52-2.41s-9.45,1.22-12.52,2.41c-2.13.82-4.18,1.61-7.43,1.94.11-10.91,9-19.75,19.94-19.75ZM43.73,158.96c28.69-14.6,59.38-25.12,90.85-31.26.89-.17,1.8.26,2.23,1.05l15.96,29.5,4.02-2.18-14.6-26.99c-.68-1.25.07-2.8,1.48-3.04,10.72-1.8,21.51-3.08,32.33-3.86,1.07-.08,2.02.68,2.2,1.73l14.51,86.98c.16.97-.38,1.93-1.31,2.27-.42.16-.84.33-1.25.51-.99.44-2.14.05-2.66-.9l-19.03-35.16-4.02,2.18,19.38,35.81c.45.83.28,1.86-.41,2.5-.27.25-.53.5-.78.76-.79.8-2.06.84-2.89.08l-41.53-38.23-3.1,3.37,42.36,38.99c.67.62.86,1.6.46,2.42-.1.21-.2.41-.29.62-.47,1.05-1.68,1.55-2.74,1.09l-57.01-25.01-1.84,4.19,58.31,25.58c.81.35,1.31,1.18,1.23,2.05,0,.01,0,.02,0,.04-.1,1.16-1.12,2.02-2.28,1.91-3.32-.32-5.39-1.12-7.55-1.95-3.07-1.18-6.25-2.41-12.52-2.41s-9.45,1.22-12.52,2.41c-2.8,1.08-5.45,2.1-10.88,2.1s-8.07-1.02-10.88-2.1c-3.07-1.18-6.25-2.41-12.52-2.41s-9.45,1.22-12.52,2.41c-2.8,1.08-5.45,2.1-10.88,2.1s-8.07-1.02-10.88-2.1c-3.07-1.18-6.25-2.41-12.53-2.41s-9.45,1.22-12.52,2.41c-1.39.54-2.75,1.06-4.42,1.45-1.31.3-2.57-.67-2.57-2.02v-56.99c0-1.49,1.53-2.5,2.9-1.9l11.65,5.06,1.82-4.2-15.12-6.57c-.76-.33-1.25-1.08-1.25-1.9v-1.82c0-2.62,1.43-5.03,3.63-6.16ZM346.21,278.67H53.79c-7.55,0-13.7-6.42-13.7-14.3v-22.04c0-1.03.76-1.89,1.78-2.05,2.86-.46,4.88-1.23,6.86-2,2.8-1.08,5.45-2.1,10.88-2.1s8.08,1.02,10.88,2.1c3.07,1.18,6.25,2.41,12.52,2.41s9.45-1.22,12.52-2.41c2.8-1.08,5.45-2.1,10.88-2.1s8.07,1.02,10.88,2.1c3.07,1.18,6.25,2.41,12.52,2.41s9.45-1.22,12.52-2.41c2.8-1.08,5.45-2.1,10.88-2.1s8.07,1.02,10.88,2.1c3.07,1.18,6.25,2.41,12.52,2.41s9.45-1.22,12.52-2.41c2.8-1.08,5.45-2.1,10.88-2.1s8.07,1.02,10.88,2.1c3.07,1.18,6.25,2.41,12.52,2.41s9.45-1.22,12.52-2.41c2.8-1.08,5.45-2.1,10.87-2.1s8.07,1.02,10.88,2.1c3.07,1.18,6.25,2.41,12.52,2.41s9.45-1.22,12.52-2.41c2.8-1.08,5.45-2.1,10.87-2.1s8.07,1.02,10.88,2.1c3.07,1.18,6.25,2.41,12.52,2.41s9.45-1.22,12.52-2.41c2.8-1.08,5.45-2.1,10.88-2.1s8.07,1.02,10.88,2.1c1.98.76,4,1.54,6.86,2,1.02.16,1.78,1.02,1.78,2.05v22.04c0,7.88-6.14,14.3-13.7,14.3Z" fill="#000" stroke-width="0"></path>
  </g>
</svg>
