<?xml version="1.0" encoding="UTF-8"?>
<svg xmlns="http://www.w3.org/2000/svg" width="400" height="400" viewBox="0 0 400 400" fill="none">
  <path d="M294.7,59.75H105.3c-21.37,0-38.76,17.39-38.76,38.76v108.29c0,36.66,15.31,72.09,42.02,97.21,24.85,23.38,57.33,36.25,91.44,36.25s66.59-12.87,91.44-36.25c26.7-25.12,42.02-60.55,42.02-97.21v-108.29c0-21.37-17.39-38.76-38.76-38.76Z" fill="#f7f1e8" stroke-width="0"></path>
  <g>
    <path d="M139.54,273.51c-.05-1.76-.91-3.46-2.58-5.1l-3.99-3.91-9.96,10.18,3.98,3.9c1.12,1.09,2.26,1.83,3.43,2.2,1.17.37,2.33.37,3.47.01,1.14-.36,2.25-1.09,3.33-2.19,1.59-1.63,2.37-3.33,2.32-5.09ZM134.78,276.21c-.65.69-1.32,1.16-2.01,1.41s-1.36.3-2.01.13c-.66-.17-1.29-.54-1.89-1.13l-1.59-1.55,6.17-6.3,1.59,1.55c.89.88,1.32,1.83,1.27,2.86-.04,1.03-.56,2.04-1.54,3.04Z" fill="#000" stroke-width="0"></path>
    <polygon points="150.55 274.21 147.72 275.35 148.01 276.09 150.84 274.98 150.55 274.21" fill="#000" stroke-width="0"></polygon>
    <polygon points="145.07 285.72 146.49 283.8 142.35 280.73 144.17 278.27 148.97 281.84 150.58 279.67 143.13 274.13 134.64 285.56 142.25 291.22 143.87 289.04 138.91 285.35 140.93 282.64 145.07 285.72" fill="#000" stroke-width="0"></polygon>
    <path d="M156.5,283.12l-5.04,8.78c-.3.52-.63.86-1.01,1.02-.38.16-.78.12-1.2-.12-.31-.18-.53-.42-.66-.73-.14-.31-.18-.66-.14-1.06s.18-.83.41-1.28l-3.13-.62c-.33.79-.46,1.57-.39,2.32.07.75.33,1.45.78,2.08.45.63,1.09,1.19,1.93,1.67.87.5,1.71.78,2.5.83.79.06,1.51-.11,2.17-.5.65-.39,1.21-.98,1.67-1.78l5.12-8.92-2.99-1.72Z" fill="#000" stroke-width="0"></path>
    <polygon points="163.01 289.36 168.51 291.69 169.56 289.21 161.02 285.59 155.47 298.7 164.2 302.4 165.26 299.89 159.57 297.49 160.89 294.37 165.64 296.39 166.57 294.19 161.82 292.18 163.01 289.36" fill="#000" stroke-width="0"></polygon>
    <path d="M178.91,291.91l-2.36,8.66c-.15.54-.38.99-.7,1.35-.32.36-.69.61-1.13.73-.44.12-.92.11-1.44-.03-.51-.14-.93-.38-1.25-.71-.32-.34-.53-.74-.62-1.22s-.06-.97.08-1.5l2.36-8.66-3.31-.9-2.41,8.84c-.3,1.09-.32,2.11-.07,3.04.25.93.76,1.73,1.51,2.4s1.74,1.17,2.94,1.5c1.21.33,2.31.4,3.3.2.99-.19,1.83-.63,2.52-1.3.69-.67,1.19-1.56,1.48-2.65l2.41-8.84-3.33-.91Z" fill="#000" stroke-width="0"></path>
    <polygon points="191.8 304.29 191.75 304.29 187.79 293.57 183.64 293.1 182.04 307.25 185.24 307.62 186.38 297.5 186.42 297.5 190.41 308.2 194.52 308.67 196.12 294.52 192.94 294.16 191.8 304.29" fill="#000" stroke-width="0"></polygon>
    <polygon points="201.38 305.9 201.3 302.52 206.46 302.39 206.4 300.01 201.24 300.14 201.16 297.08 207.14 296.93 207.07 294.23 197.79 294.46 198.15 308.7 207.63 308.46 207.56 305.74 201.38 305.9" fill="#000" stroke-width="0"></polygon>
    <path d="M221.79,304.4c-.13.12-.27.2-.42.22-.16.03-.31-.01-.44-.12-.13-.11-.25-.27-.36-.48l-.77-1.68c-.15-.41-.34-.72-.59-.95s-.55-.39-.93-.49v-.02c.6-.25,1.11-.59,1.53-1.03.41-.44.7-.93.87-1.48.17-.55.2-1.12.11-1.71-.14-.88-.48-1.61-1.02-2.2-.54-.58-1.25-.99-2.12-1.22-.87-.23-1.85-.26-2.94-.08l-6.3,1.01,2.26,14.06,3.38-.54-.86-5.37,1.71-.27c.31-.05.62.02.94.21.32.19.57.48.76.85l1,2.23c.18.4.41.74.7,1.02.29.28.63.47,1.01.59.38.11.81.13,1.28.06.52-.08,1.02-.27,1.49-.56.47-.29.85-.65,1.14-1.07l-1.04-1.47c-.13.21-.26.38-.39.5ZM217.31,298.32c-.15.32-.38.59-.71.81s-.71.37-1.17.44l-2.62.42-.62-3.87,2.62-.42c.47-.08.89-.05,1.26.06.37.12.67.3.91.55s.39.57.45.95c.06.38.02.73-.13,1.05Z" fill="#000" stroke-width="0"></path>
    <path d="M233.3,295.99c-.85-.44-2.03-.6-3.55-.5l-1.91.11c-.72.07-1.26.02-1.63-.14s-.62-.45-.75-.87c-.09-.31-.1-.6-.02-.87.08-.28.24-.53.49-.76.25-.23.56-.4.92-.51.39-.12.78-.14,1.16-.05.38.08.71.26,1,.53.28.27.51.61.68,1.02l2.76-1.52c-.31-.77-.78-1.38-1.42-1.84s-1.38-.74-2.22-.84c-.84-.1-1.71-.02-2.61.26-1.04.32-1.89.78-2.56,1.37-.66.6-1.1,1.28-1.31,2.07-.21.78-.18,1.59.07,2.42.33,1.06.9,1.8,1.73,2.24.82.44,1.97.6,3.43.5l1.94-.07c.76-.07,1.34-.02,1.74.14.4.16.66.46.79.88.1.32.09.63-.02.95-.11.31-.31.6-.61.85s-.68.45-1.13.59c-.52.16-1.04.2-1.55.12-.51-.08-.96-.29-1.34-.62s-.67-.77-.86-1.31l-2.86,1.45c.34.93.88,1.67,1.6,2.22.72.55,1.57.88,2.53.99s2.01-.01,3.12-.35c1.1-.34,2.02-.83,2.75-1.45.73-.63,1.22-1.35,1.47-2.16.25-.81.24-1.66-.04-2.55-.34-1.07-.94-1.82-1.78-2.25Z" fill="#000" stroke-width="0"></path>
    <path d="M249.53,289.19c.24.7.34,1.37.3,2-.03.63-.22,1.2-.55,1.71-.34.51-.79.92-1.37,1.23-.68.37-1.37.52-2.06.48-.69-.05-1.34-.32-1.96-.8-.62-.49-1.15-1.14-1.59-1.96-.46-.86-.72-1.67-.8-2.43-.08-.76.03-1.43.32-2.01.29-.58.74-1.03,1.35-1.35.47-.25.94-.36,1.43-.33.48.03.96.17,1.43.44s.9.66,1.29,1.17l2.53-2.03c-.66-.89-1.43-1.56-2.32-2-.89-.45-1.82-.65-2.79-.62-.97.04-1.95.31-2.92.83-1.25.67-2.18,1.51-2.8,2.55-.62,1.03-.91,2.18-.88,3.44.03,1.26.42,2.58,1.15,3.95.73,1.37,1.62,2.41,2.68,3.12,1.06.72,2.22,1.09,3.48,1.11,1.26.02,2.54-.31,3.83-1,1.09-.58,1.97-1.32,2.63-2.22.66-.9,1.05-1.89,1.17-2.98.12-1.09-.05-2.22-.5-3.38l-3.05,1.08Z" fill="#000" stroke-width="0"></path>
    <polygon points="258.4 287.32 256.42 284.59 260.59 281.56 259.19 279.63 255.02 282.67 253.22 280.19 258.05 276.68 256.46 274.49 248.96 279.95 257.33 291.47 265 285.89 263.4 283.69 258.4 287.32" fill="#000" stroke-width="0"></polygon>
    <path d="M272.6,269.06c-1.06-1.09-2.21-1.83-3.44-2.22s-2.47-.42-3.71-.09-2.4,1.02-3.5,2.08c-1.05,1.02-1.77,2.15-2.14,3.39s-.38,2.48-.03,3.73,1.06,2.42,2.1,3.5c1.06,1.09,2.21,1.83,3.45,2.21,1.24.38,2.48.4,3.73.08,1.25-.33,2.4-1,3.45-2.02,1.09-1.06,1.82-2.2,2.17-3.43.36-1.23.36-2.47.02-3.72-.34-1.25-1.04-2.42-2.09-3.5ZM271.65,275.72c-.17.7-.55,1.34-1.15,1.92-.57.55-1.2.9-1.91,1.04-.7.14-1.43.08-2.17-.2s-1.44-.75-2.09-1.42c-.66-.68-1.11-1.39-1.36-2.14-.25-.74-.29-1.47-.12-2.16.17-.7.53-1.32,1.1-1.87.6-.58,1.25-.94,1.96-1.09.71-.15,1.43-.08,2.15.2.73.28,1.42.76,2.08,1.44.65.67,1.11,1.38,1.37,2.11.26.74.31,1.46.14,2.17Z" fill="#000" stroke-width="0"></path>
    <path d="M280.73,95.17h-29.27v4.62h29.27c7.48,0,13.57,6.09,13.57,13.57v91.54c0,14.19-3.28,28.43-9.47,41.19l4.16,2.02c6.5-13.39,9.94-28.33,9.94-43.21v-91.54c0-10.03-8.16-18.19-18.19-18.19Z" fill="#000" stroke-width="0"></path>
    <path d="M105.71,113.36c0-7.48,6.08-13.57,13.57-13.57h82.48v-4.62h-82.48c-10.03,0-18.19,8.16-18.19,18.19v91.54c0,14.88,3.44,29.83,9.94,43.21l4.16-2.02c-6.2-12.76-9.47-27.01-9.47-41.19v-91.54Z" fill="#000" stroke-width="0"></path>
    <path d="M295.11,75.73H104.89c-12.33,0-22.36,10.03-22.36,22.36v108.7c0,32.27,13.48,63.46,36.98,85.57,22.57,21.23,51.53,31.84,80.49,31.84,28.96,0,57.92-10.61,80.49-31.84,23.5-22.11,36.98-53.3,36.98-85.57v-108.7c0-12.33-10.03-22.36-22.36-22.36ZM312.85,206.79c0,31-12.95,60.96-35.53,82.2l1.58,1.68-1.58-1.68c-43.36,40.79-111.29,40.79-154.65,0-22.58-21.24-35.53-51.2-35.53-82.2v-108.7c0-9.78,7.96-17.74,17.74-17.74h190.23c9.78,0,17.74,7.96,17.74,17.74v108.7Z" fill="#000" stroke-width="0"></path>
    <path d="M265.75,113.01h-30.64c-.06-3.23.25-6.4,1.04-9.47l.07-.28v-.29q0-1.35-5.13-4.25l-5.01-2.83-1.09.52c-.67.32-13.97,6.8-22.02,20.24-1.01,1.69-3.39,1.83-4.59.27-2.81-3.66-5.28-5.78-5.44-5.91l-1.38-1.17-8.89,6.38.6,1.65c1.59,4.33-4.72,14.41-16.86,26.94-14.25,14.32-22.05,33.34-20.37,49.65l4.6-.48c-1.54-14.96,5.75-32.55,19.07-45.94,12.08-12.48,18.24-22.07,18.39-28.59.02-.9.42-1.75,1.15-2.27h0c1.16-.83,2.75-.66,3.69.41,1.87,2.14,4.28,5.31,6.16,9.23l.73,1.42,3.13-.26.49-1.46c4.48-13.36,16-21.53,21.07-24.58.86-.52,1.92-.54,2.79-.04.71.4,1.5.85,2.25,1.27.99.56,1.54,1.67,1.37,2.8-2.36,15.41,4.63,32.1,11.49,46.71,10.28,21.88,12.75,39.61,7.78,55.81-5.02,16.37-24.42,32.19-41.5,33.87l.45,4.6c19.05-1.87,39.87-18.86,45.47-37.11,5.33-17.36,2.78-36.15-8.02-59.13-4.44-9.44-8.93-19.77-10.71-29.84-.3-1.69,1.02-3.23,2.74-3.23h27.11c6.38,0,11.55,5.17,11.55,11.55v69.67c0,19.33-7.17,37.83-20.2,52.11-14.61,16.01-35.42,25.19-57.1,25.19-15.61,0-30.75-4.78-43.47-13.42-1.39-.94-1.56-2.91-.38-4.11,12.95-13.04,27.69-35.01,32.36-42.14.85-1.3,2.56-1.72,3.92-.97l5.45,3c2.77,1.53,5.77,2.25,8.73,2.25,6.41,0,12.63-3.4,15.93-9.39l9.9-17.97c4.84-8.78,1.64-19.82-7.14-24.66l-6.96-3.83,5.72-10.38-4.05-2.23-13.88,25.19c-.92,1.67-3.19,1.92-4.48.52-1.78-1.92-2.6-3.55-2.67-3.71l-2.09,1-2.09.99c.24.5,5.95,12.23,21.53,13.08l.25-4.62c-1.76-.1-3.37-.36-4.84-.74-1.74-.45-2.58-2.44-1.71-4.02l4.74-8.61c.74-1.34,2.42-1.83,3.76-1.09l4.54,2.5c6.54,3.6,8.93,11.83,5.32,18.38l-9.9,17.97c-3.6,6.54-11.84,8.92-18.38,5.32l-17.62-9.7c-3.14-1.73-5.63-4.52-6.72-7.93-1.14-3.57-.76-7.37,1.04-10.64l9.9-17.97c3.09-5.61,9.75-8.3,15.85-6.4l1.37-4.42c-8.18-2.55-17.14,1.06-21.28,8.58l-9.7,17.62c-2.2,3.99-3.02,8.65-2.01,13.09,1.16,5.14,4.39,9.41,8.96,11.93l3.37,1.86c1.43.79,1.87,2.63.96,3.98-4.26,6.31-8.25,12.18-12.49,17.96-1.42,1.94-4.47,1.29-4.95-1.07l-2.72-13.34-4.53.93,4.73,23.17h.07c-3.65,4.53-7.64,9.15-12.19,14.02-1.03,1.1-2.76,1.17-3.88.16-1.87-1.68-3.68-3.44-5.39-5.32-13.03-14.28-20.2-32.78-20.2-52.11v-69.67c0-6.38,5.17-11.55,11.55-11.55h32.3v-4.62h-32.3c-8.93,0-16.17,7.24-16.17,16.17v69.67c0,20.48,7.6,40.1,21.41,55.23,15.49,16.97,37.54,26.7,60.52,26.7s45.03-9.73,60.52-26.7c13.81-15.13,21.41-34.74,21.41-55.23v-69.67c0-8.93-7.24-16.17-16.17-16.17Z" fill="#000" stroke-width="0"></path>
    <path d="M134.83,167.75l4.59.56c1.56-12.73,12.94-22.74,13.06-22.84l-1.51-1.75-1.51-1.75c-.52.45-12.84,11.24-14.62,25.77Z" fill="#000" stroke-width="0"></path>
    <path d="M219.76,115.33c-2.46,12.59,4.5,24.86,4.79,25.38l4.01-2.31c-.06-.11-6.38-11.32-4.26-22.19l-4.54-.88Z" fill="#000" stroke-width="0"></path>
  </g>
</svg>
