<?xml version="1.0" encoding="UTF-8"?>
<svg xmlns="http://www.w3.org/2000/svg" width="400" height="400" viewBox="0 0 400 400" fill="none">
  <path d="M293.87,101.94c-24.71-24.75-57.57-38.39-92.54-38.41h-2.39s0,0,0,0h-.09c-34.95,0-67.81,13.61-92.53,38.31-24.72,24.7-38.35,57.55-38.38,92.5l-.09,103.6c0,10.25,3.98,19.89,11.22,27.14,7.24,7.25,16.87,11.25,27.12,11.26l187.49.14c21.17,0,38.38-17.2,38.39-38.34l.09-103.6c.03-34.97-13.57-67.86-38.27-92.6Z" fill="#521418" stroke-width="0"></path>
  <g>
    <path d="M271.03,139.41c17.2,17.34,19.77,43.62,19.77,57.74,0,24.19-.04,96.78-.04,96.78,0,1.62-1.32,2.93-2.93,2.93h-4.5v4.57h4.5c4.14,0,7.51-3.37,7.51-7.5,0,0,.04-72.59.04-96.78,0-14.83-2.74-42.46-21.1-60.96l-3.25,3.22Z" fill="#fe3a3a" stroke-width="0"></path>
    <path d="M109.22,293.93s-.04-72.58-.04-96.78c0-14.12,2.57-40.4,19.77-57.74l-3.25-3.22c-18.36,18.5-21.1,46.14-21.1,60.96,0,24.2.04,96.78.04,96.78,0,4.14,3.37,7.51,7.51,7.51h4.51v-4.57h-4.51c-1.62,0-2.93-1.32-2.93-2.93Z" fill="#fe3a3a" stroke-width="0"></path>
    <path d="M198.37,119.83h-.06c-40.8,0-74.01,33.18-74.04,73.98l-.06,73.76c0,3.77,3.06,6.84,6.83,6.84l134.4.1h0c1.82,0,3.54-.71,4.83-2,1.29-1.29,2.01-3.01,2.01-4.83l.06-73.76c.02-19.78-7.67-38.38-21.65-52.37-13.97-14-32.56-21.71-52.34-21.73ZM267.06,269.29c-.43.43-1,.66-1.6.66h0l-134.4-.1c-1.25,0-2.26-1.02-2.26-2.27l.02-19.83c0-1.38,1.28-2.43,2.63-2.13,14.18,3.12,26.07,7.58,35.43,13.27l2.38-3.91c-10.19-6.2-23.2-10.98-38.69-14.22-1.01-.21-1.74-1.1-1.74-2.13v-8.95c0-1.21.99-2.19,2.2-2.17,15.12.19,65.28,2.61,90.33,25.71l3.1-3.36c-8.98-8.28-21.51-14.73-37.39-19.29-1.53-.44-2.02-2.36-.89-3.48l22.75-22.41,4.11,3.94c4.12,3.95,10.59,3.96,14.72.02,1.18-1.13,2.73-1.74,4.37-1.68,1.63.05,3.15.73,4.26,1.92l1.77,1.89c2,2.13,4.76,3.39,7.68,3.44.06,0,.11,0,.17,0,2.73,0,5.31-1.03,7.3-2.91l4.68-4.42,9.77,9.84-.04,50.97c0,.6-.24,1.17-.66,1.6ZM213.8,203.01c-.89-.85-.89-2.26-.02-3.12l16.83-16.58c1.11-1.1,2.92-1.09,4.02.02l18.57,18.71c.86.87.84,2.27-.05,3.11l-2.81,2.65c-1.09,1.03-2.48,1.72-3.97,1.8-1.84.1-3.56-.59-4.8-1.91l-1.84-1.96c-1.96-2.09-4.61-3.29-7.47-3.37-2.9-.07-5.65.99-7.73,3.02-2.31,2.24-6.03,2.11-8.36-.12l-2.36-2.27ZM267.77,204.96c0,1.94-2.35,2.91-3.72,1.53l-26.18-26.38c-2.87-2.89-7.57-2.92-10.48-.06l-48.17,47.45c-.52.52-1.27.73-1.99.57-4.34-.96-8.9-1.8-13.66-2.52-14.05-2.12-26.41-2.55-32.7-2.62-1.14-.01-2.06-.94-2.06-2.08v-14c.01-.56.23-1.11.62-1.51l37.67-38.95c.54-.56,1.26-.86,2.03-.87h.01c.76,0,1.5.31,2.03.85l27.17,27.66,3.26-3.21-27.25-27.75c-1.37-1.4-3.25-2.17-5.21-2.14h-.03c-2.02,0-3.9.81-5.31,2.26l-31.24,32.31c-1.36,1.41-3.74.44-3.74-1.51v-.17c.03-38.34,31.12-69.41,69.47-69.41h.05c18.56.01,36,7.25,49.11,20.38,13.11,13.13,20.32,30.58,20.31,49.14v11.03Z" fill="#fe3a3a" stroke-width="0"></path>
    <path d="M282.54,113.25c-21.69-21.72-50.53-33.69-81.22-33.72h-2.39s-.06,0-.09,0c-63.31,0-114.85,51.49-114.9,114.81l-.09,103.6c0,5.97,2.32,11.59,6.54,15.81,4.22,4.23,9.83,6.56,15.8,6.56l187.49.14h.02c12.32,0,22.34-10.02,22.35-22.34l.09-103.6c.02-30.69-11.91-59.56-33.59-81.28ZM311.47,298.12c0,9.8-7.98,17.77-17.78,17.77h-.01l-187.49-.14c-4.75,0-9.21-1.86-12.57-5.22-3.36-3.36-5.2-7.83-5.2-12.58l.09-103.6c.05-60.81,49.53-110.24,110.33-110.24h2.48c29.47.02,57.17,11.52,77.99,32.38,20.82,20.85,32.28,48.57,32.25,78.04l-.09,103.6Z" fill="#fe3a3a" stroke-width="0"></path>
    <path d="M143.57,298.31c-.33.54-.76.96-1.3,1.25-.54.29-1.13.44-1.79.44-.77,0-1.46-.18-2.04-.55s-1.04-.91-1.36-1.63-.48-1.55-.48-2.48c0-.97.15-1.81.44-2.52.29-.71.7-1.25,1.23-1.62.52-.37,1.13-.56,1.83-.56.53,0,1,.13,1.42.38.41.25.76.61,1.05,1.06s.48,1,.59,1.64l3.18-.6c-.16-1.09-.53-2.05-1.1-2.86-.57-.81-1.29-1.43-2.17-1.86-.88-.43-1.87-.64-2.97-.64-1.41,0-2.64.31-3.67.93-1.03.62-1.83,1.49-2.4,2.62-.57,1.13-.85,2.47-.85,4.03,0,1.55.3,2.89.89,4.02.6,1.13,1.45,2.01,2.55,2.62s2.39.92,3.85.92c1.24,0,2.36-.24,3.37-.72,1.01-.48,1.82-1.17,2.44-2.08.62-.91,1-1.98,1.15-3.22l-3.2-.48c-.12.73-.35,1.37-.67,1.91Z" fill="#fe3a3a" stroke-width="0"></path>
    <polygon points="157.57 293.73 152.49 293.73 152.49 288.23 149.07 288.23 149.06 302.47 152.48 302.47 152.49 296.45 157.57 296.45 157.56 302.47 160.99 302.48 161 288.24 157.57 288.23 157.57 293.73" fill="#fe3a3a" stroke-width="0"></polygon>
    <rect x="163.63" y="288.24" width="3.43" height="14.24" fill="#fe3a3a" stroke-width="0"></rect>
    <path d="M179.53,298.34c-.33.54-.76.96-1.3,1.25-.54.29-1.13.44-1.79.44-.77,0-1.46-.18-2.04-.55s-1.04-.91-1.36-1.63c-.32-.72-.48-1.55-.48-2.48,0-.97.15-1.81.44-2.52.29-.71.7-1.25,1.23-1.62.52-.37,1.13-.56,1.83-.56.53,0,1,.13,1.42.38s.76.61,1.05,1.06c.29.45.48,1,.59,1.64l3.18-.6c-.16-1.09-.53-2.05-1.1-2.86-.57-.81-1.29-1.43-2.17-1.86-.88-.43-1.87-.64-2.97-.64-1.41,0-2.64.31-3.67.93-1.03.62-1.83,1.49-2.4,2.62-.57,1.13-.85,2.47-.85,4.03,0,1.55.3,2.89.89,4.02.6,1.13,1.45,2.01,2.55,2.62,1.1.61,2.39.92,3.85.92,1.24,0,2.36-.24,3.37-.72,1.01-.48,1.82-1.17,2.44-2.08.62-.91,1-1.98,1.15-3.22l-3.2-.48c-.12.73-.35,1.37-.67,1.91Z" fill="#fe3a3a" stroke-width="0"></path>
    <rect x="184.79" y="294.02" width="6.43" height="2.12" fill="#fe3a3a" stroke-width="0"></rect>
    <path d="M203.72,298.36c-.33.54-.76.96-1.3,1.25-.54.29-1.13.44-1.79.44-.77,0-1.46-.18-2.04-.55s-1.04-.91-1.36-1.63-.48-1.55-.48-2.48c0-.97.15-1.81.44-2.52.29-.71.7-1.25,1.23-1.62.52-.37,1.13-.56,1.83-.56.53,0,1,.13,1.42.38.41.25.76.61,1.05,1.06.29.45.48,1,.59,1.64l3.18-.6c-.16-1.09-.53-2.05-1.1-2.86-.57-.81-1.29-1.43-2.17-1.86-.88-.43-1.87-.64-2.97-.64-1.41,0-2.64.31-3.67.93-1.03.62-1.83,1.49-2.4,2.62-.57,1.13-.85,2.47-.85,4.03,0,1.55.3,2.89.89,4.02.6,1.13,1.45,2.01,2.55,2.62,1.1.61,2.39.92,3.85.92,1.24,0,2.36-.24,3.37-.72,1.01-.48,1.82-1.17,2.44-2.08.62-.91,1-1.98,1.15-3.22l-3.2-.48c-.12.73-.35,1.37-.67,1.91Z" fill="#fe3a3a" stroke-width="0"></path>
    <polygon points="217.73 293.78 212.65 293.77 212.65 288.27 209.22 288.27 209.21 302.51 212.64 302.52 212.64 296.5 217.72 296.5 217.72 302.52 221.15 302.52 221.16 288.28 217.73 288.28 217.73 293.78" fill="#fe3a3a" stroke-width="0"></polygon>
    <path d="M234.63,288.77c-1.11-.63-2.43-.94-3.96-.94-1.47,0-2.77.31-3.9.94-1.13.63-2,1.51-2.62,2.66-.62,1.15-.93,2.47-.93,3.98,0,1.52.31,2.85.94,3.98.62,1.13,1.5,2.02,2.62,2.65s2.42.95,3.89.95c1.52,0,2.84-.31,3.95-.95,1.11-.63,1.98-1.52,2.6-2.66.63-1.14.94-2.46.94-3.97,0-1.52-.31-2.85-.92-3.99-.62-1.14-1.48-2.02-2.6-2.65ZM234.23,297.88c-.33.71-.8,1.26-1.41,1.65-.61.39-1.33.58-2.16.58-.79,0-1.49-.19-2.09-.58-.6-.39-1.08-.94-1.42-1.65-.34-.71-.51-1.54-.51-2.47,0-.95.17-1.77.51-2.48.34-.71.81-1.25,1.42-1.64.61-.39,1.3-.58,2.09-.58.83,0,1.55.19,2.16.58.61.39,1.08.93,1.41,1.64.33.71.49,1.53.49,2.48,0,.93-.16,1.76-.49,2.47Z" fill="#fe3a3a" stroke-width="0"></path>
    <path d="M250.01,298.39c-.33.54-.76.96-1.3,1.25-.54.29-1.13.44-1.79.44-.77,0-1.46-.18-2.04-.55s-1.04-.91-1.36-1.63c-.32-.72-.48-1.55-.48-2.48,0-.97.15-1.81.44-2.52.29-.71.7-1.25,1.23-1.62.52-.37,1.13-.56,1.83-.56.53,0,1,.13,1.42.38.41.25.76.61,1.05,1.06.29.45.48,1,.59,1.64l3.18-.6c-.16-1.09-.53-2.05-1.1-2.86-.57-.81-1.29-1.43-2.17-1.86-.88-.43-1.87-.64-2.97-.64-1.41,0-2.64.31-3.67.93s-1.83,1.49-2.4,2.62c-.57,1.13-.85,2.47-.85,4.03,0,1.55.3,2.89.89,4.02.6,1.13,1.45,2.01,2.55,2.62,1.1.61,2.39.92,3.85.92,1.24,0,2.36-.24,3.37-.72,1.01-.48,1.82-1.17,2.44-2.08.62-.91,1-1.98,1.15-3.22l-3.2-.48c-.12.73-.35,1.37-.67,1.91Z" fill="#fe3a3a" stroke-width="0"></path>
    <path d="M262.63,294.15l-1.86-.46c-.71-.15-1.21-.35-1.52-.61-.31-.26-.46-.61-.46-1.05,0-.32.08-.6.24-.84.16-.24.39-.43.69-.58.31-.15.65-.22,1.03-.22.41,0,.78.1,1.12.29.34.19.6.46.79.8.19.34.31.73.35,1.17l3.08-.64c-.07-.83-.34-1.55-.81-2.18-.48-.63-1.1-1.11-1.88-1.46-.77-.35-1.63-.52-2.57-.52-1.09,0-2.04.19-2.85.56-.81.37-1.43.9-1.86,1.59-.43.69-.64,1.46-.64,2.33,0,1.11.33,1.99.99,2.65.66.66,1.7,1.16,3.13,1.49l1.88.5c.75.16,1.29.38,1.62.65s.5.63.5,1.07c0,.33-.1.63-.3.9-.2.27-.48.48-.84.63-.36.15-.78.23-1.25.23-.54,0-1.05-.11-1.52-.34-.47-.23-.84-.56-1.1-.99s-.41-.94-.44-1.51l-3.16.54c.05.99.35,1.85.88,2.59.53.74,1.24,1.3,2.13,1.69.89.39,1.92.58,3.09.58,1.16,0,2.18-.19,3.06-.58.88-.39,1.56-.93,2.04-1.63.48-.7.71-1.52.72-2.45-.01-1.12-.36-2.01-1.04-2.68-.68-.67-1.76-1.17-3.24-1.52Z" fill="#fe3a3a" stroke-width="0"></path>
    <path d="M141.53,131.88l-3.22-3.7,2.24-1.95c.78-.68,1.35-1.42,1.7-2.23.35-.8.46-1.62.32-2.44-.14-.82-.51-1.58-1.12-2.28-.6-.69-1.3-1.15-2.09-1.39-.79-.23-1.62-.23-2.49.01-.87.24-1.7.71-2.49,1.4l-4.75,4.12,9.32,10.7,2.58-2.24ZM133.86,123.08l1.78-1.54c.56-.48,1.13-.72,1.72-.71.59,0,1.09.25,1.5.72.28.32.45.67.5,1.06.05.38,0,.76-.16,1.13-.16.37-.42.71-.78,1.02l-1.76,1.53-2.79-3.2Z" fill="#fe3a3a" stroke-width="0"></path>
    <path d="M151.49,124.07l-2.87-4.6,1.47-.92c.27-.17.58-.22.95-.17s.71.21,1.03.49l1.78,1.66c.32.3.67.52,1.04.66s.77.19,1.16.14c.4-.05.8-.19,1.2-.45.45-.28.84-.65,1.16-1.1.32-.45.53-.93.64-1.43l-1.53-.95c-.04.24-.1.45-.17.61-.07.16-.18.29-.3.37-.14.09-.29.11-.46.06-.17-.05-.34-.15-.51-.3l-1.36-1.24c-.29-.32-.6-.53-.91-.64-.31-.11-.66-.14-1.04-.09v-.02c.46-.46.79-.98,1.01-1.54.21-.56.29-1.13.23-1.7-.06-.57-.24-1.1-.56-1.61-.47-.75-1.07-1.29-1.79-1.62-.72-.32-1.53-.42-2.43-.29-.89.13-1.81.49-2.75,1.07l-5.43,3.4,7.52,12.03,2.92-1.82ZM145.31,114.17l2.26-1.41c.4-.25.8-.4,1.19-.44.39-.04.74.01,1.06.15.32.14.58.37.79.7.2.33.3.67.29,1.02-.01.35-.13.69-.34,1.02s-.52.62-.91.86l-2.26,1.41-2.07-3.31Z" fill="#fe3a3a" stroke-width="0"></path>
    <path d="M159.27,115.71c1,.81,2.15,1.29,3.42,1.45,1.28.16,2.6-.04,3.97-.6,1.42-.58,2.52-1.37,3.31-2.38.79-1,1.27-2.15,1.42-3.44.15-1.29-.05-2.63-.61-4.02-.57-1.4-1.35-2.52-2.35-3.33-1-.82-2.14-1.31-3.41-1.46-1.27-.16-2.61.06-4.03.63-1.36.56-2.45,1.34-3.27,2.35s-1.29,2.16-1.44,3.45c-.15,1.29.06,2.64.62,4.03.57,1.4,1.35,2.51,2.36,3.32ZM159.65,108.61c.05-.78.29-1.47.7-2.05.42-.59.99-1.03,1.73-1.33.77-.31,1.51-.41,2.23-.28.71.13,1.35.45,1.92.98.57.53,1.03,1.23,1.38,2.11.35.86.5,1.68.47,2.47-.04.78-.27,1.47-.69,2.06-.42.59-1.02,1.04-1.79,1.36-.73.3-1.45.38-2.16.26s-1.35-.46-1.93-.99c-.58-.53-1.05-1.23-1.4-2.09-.35-.87-.5-1.7-.45-2.48Z" fill="#fe3a3a" stroke-width="0"></path>
    <path d="M174.5,109.81c.78,1,1.72,1.7,2.83,2.11,1.11.4,2.32.47,3.65.2.71-.14,1.36-.39,1.96-.75.6-.35,1.11-.78,1.53-1.29.42-.51.74-1.07.96-1.7h.02s.72,2.25.72,2.25l2.5-.51-1.57-7.9-8.58,1.76.42,2.13,5.31-1.09c.11.7.06,1.33-.16,1.91s-.57,1.06-1.06,1.46c-.49.4-1.08.67-1.78.81-.81.17-1.56.12-2.25-.14-.68-.26-1.27-.71-1.75-1.34-.48-.63-.81-1.42-1-2.36-.18-.9-.19-1.72-.02-2.47.16-.75.49-1.37.96-1.86.48-.49,1.08-.81,1.8-.96.44-.09.87-.08,1.29.03.42.11.81.3,1.17.58.36.27.67.62.94,1.04l2.97-1.32c-.41-.82-.98-1.51-1.7-2.04-.72-.54-1.53-.91-2.42-1.1-.89-.2-1.82-.2-2.76,0-1.4.29-2.58.85-3.52,1.69-.95.84-1.6,1.88-1.96,3.11-.36,1.23-.39,2.59-.1,4.06.29,1.47.83,2.71,1.6,3.71Z" fill="#fe3a3a" stroke-width="0"></path>
    <path d="M193.87,109.94l-.1-5.43,1.74-.04c.31,0,.62.1.91.34.29.23.5.55.63.94l.68,2.34c.12.42.3.79.55,1.1s.56.55.92.72c.36.16.78.24,1.26.23.53-.01,1.05-.13,1.56-.36.51-.23.93-.53,1.28-.91l-.83-1.6c-.16.19-.31.34-.46.44-.15.1-.3.16-.45.16-.16,0-.3-.06-.42-.18-.12-.12-.21-.3-.29-.52l-.52-1.76c-.09-.42-.24-.76-.45-1.02-.21-.25-.49-.46-.85-.61v-.02c.64-.16,1.19-.43,1.66-.81.47-.38.83-.83,1.07-1.35.24-.52.36-1.08.35-1.68-.02-.89-.25-1.66-.71-2.31-.46-.65-1.1-1.14-1.93-1.49-.83-.34-1.8-.5-2.9-.47l-6.39.16.27,14.22,3.43-.09ZM196.31,98.17c.48-.01.89.06,1.24.23.35.16.63.39.83.67.2.28.31.61.32,1,0,.39-.09.73-.28,1.03-.19.3-.46.53-.81.71-.35.18-.76.27-1.22.28l-2.66.07-.07-3.91,2.65-.07Z" fill="#fe3a3a" stroke-width="0"></path>
    <path d="M208.37,107.54l4.95.69.42,2.9,3.48.49-2.61-14.74-4.16-.58-6.81,13.42,3.46.48,1.28-2.67ZM212.1,99.3h.04s.97,6.44.97,6.44l-3.82-.53,2.81-5.91Z" fill="#fe3a3a" stroke-width="0"></path>
    <polygon points="224.32 103.16 224.36 103.17 224.58 113.87 227.28 114.78 234.06 106.43 234.09 106.45 230.82 115.97 233.81 116.98 238.45 103.5 234.12 102.04 227.19 110.74 227.17 110.73 227.05 99.67 222.69 98.2 218.05 111.68 221.04 112.68 224.32 103.16" fill="#fe3a3a" stroke-width="0"></polygon>
    <polygon points="238.26 119.42 243.54 110.82 243.57 110.84 241.45 121.35 243.89 122.83 252.31 116.14 252.34 116.16 247.07 124.76 249.77 126.39 257.23 114.22 253.33 111.86 244.68 118.85 244.66 118.84 246.96 108 243.03 105.62 235.57 117.79 238.26 119.42" fill="#fe3a3a" stroke-width="0"></polygon>
    <polygon points="258.33 134.13 260.14 132.09 255.51 128.02 257.76 125.48 261.63 128.88 263.21 127.1 259.35 123.7 261.38 121.4 265.86 125.34 267.65 123.31 260.71 117.2 251.23 127.89 258.33 134.13" fill="#fe3a3a" stroke-width="0"></polygon>
    <path d="M210.93,152.48c-5.58-5.49-13.25-4.27-16.96-2.59l1.88,4.17c.36-.16,8.84-3.8,13.62,3.9.35.56.93.94,1.59,1.05.12.02.24.03.36.03.54,0,1.07-.19,1.48-.54.24-.2,5.92-4.86,13.69-.72l2.15-4.04c-6.54-3.49-12.06-2.29-15.39-.79-.82.37-1.77.17-2.41-.46Z" fill="#fe3a3a" stroke-width="0"></path>
  </g>
</svg>
